<svg width="91" height="80" viewBox="0 0 91 80" fill="none" xmlns="http://www.w3.org/2000/svg">
<path d="M65.7093 53.2318C61.1766 58.847 56.6612 64.4762 52.1391 70.0998C50.1563 72.5657 48.1418 75.0951 46.104 77.3893C49.7158 62.7319 53.5508 47.6057 57.2169 33.0309C57.5411 31.7419 57.7876 30.4336 58.033 29.0689C54.1153 23.416 52.8267 21.5754 45.8604 11.8458C53.0371 11.8458 57.9416 11.835 63.6243 11.835C64.6938 12.0051 64.1191 12.0964 65.1089 12.5979C65.8248 12.9606 67.2097 13.6434 67.3322 14.7706C67.3247 15.0944 66.9301 15.232 66.9038 15.5238C64.5347 20.4429 61.2957 24.8287 58.4094 29.2498C67.3841 29.2498 76.0235 29.1484 84.7231 29.1484C78.5361 37.0704 69.7091 48.2766 65.7093 53.2318Z" fill="#1B8347"/>
<path d="M25.2198 51.7289C22.0653 47.8507 18.9168 43.9676 15.7545 40.0957C13.5923 37.4483 10.3201 32.875 7.67188 29.2636C12.0927 29.1774 16.4441 29.2775 20.7574 29.2784C25.0291 29.2794 29.3008 29.2754 33.8179 29.2735C33.497 28.5934 33.3818 28.2745 33.2078 27.9915C30.1008 22.9353 26.9894 17.8818 23.8667 12.8353C23.6922 12.5533 23.4679 12.354 23.2366 12.1068C23.3073 11.9541 23.4905 11.8438 23.6455 11.8441C30.9572 11.8565 38.5349 11.8441 45.908 11.8441C45.4604 12.8523 44.7205 13.9479 44.1221 14.8183C40.8092 19.6375 37.4779 24.444 34.1382 29.3285C34.1548 29.6272 34.1658 29.8574 34.2202 30.0769C36.5446 39.4569 38.8645 48.8381 41.2038 58.2144C42.7693 64.4894 44.5246 71.1228 46.1058 77.3939C36.2329 65.2703 32.2935 60.4856 29.9769 57.5614C31.3077 56.7762 32.6527 56.1099 34.2025 55.3422C33.0907 54.8057 32.2058 54.289 31.2581 53.9428C29.8805 53.4395 28.9719 52.5813 28.468 51.1927C28.1149 50.2196 27.5697 49.3155 27.0593 48.2766C26.3899 49.5329 25.8049 50.6309 25.2198 51.7289ZM42.0786 13.2568C42.4645 13.2287 42.8504 13.2006 43.2363 13.1726C43.228 13.1 43.2196 13.0274 43.2113 12.9548C37.5392 12.9548 31.867 12.9548 26.1948 12.9548C26.195 13.0555 26.1952 13.1563 26.1954 13.257C31.4199 13.257 36.6444 13.257 42.0786 13.2568Z" fill="#1B8347"/>
<path d="M41.2038 58.2144C38.9471 49.1694 36.6837 40.2487 33.8159 29.2715C41.8487 29.196 50.4752 29.2693 58.3785 29.2613C57.0404 34.4362 46.789 74.8856 46.1039 77.3913C45.5377 75.1256 41.6043 59.82 41.2038 58.2144Z" fill="#24AE5F"/>
<path d="M23.3256 11.9811C23.55 12.3321 23.6923 12.5533 23.8668 12.8353C26.9895 17.8818 30.1009 22.9353 33.2079 27.9914C33.3818 28.2745 33.4971 28.5934 33.818 29.2735C29.3009 29.2754 25.0292 29.2794 20.7575 29.2784C16.4442 29.2775 12.0927 29.2716 7.67188 29.2625C11.6744 24.6423 15.7422 20.1862 19.8153 15.6469C20.8922 14.4857 22.1821 13.1798 23.3256 11.9811Z" fill="#24AE5F"/>
<path d="M84.7453 29.1714C76.0457 29.2571 67.346 29.2571 58.3713 29.2571C58.6904 28.6484 58.8531 28.2869 59.0594 27.952C61.4784 24.0265 63.9053 20.1057 66.3253 16.1807C66.5044 15.8901 66.6467 15.577 66.8795 15.146C67.0174 14.9453 67.0818 14.873 67.1991 14.8595C67.7533 15.9324 68.2545 16.9465 68.8178 18.0864C69.5698 16.683 70.2599 15.395 70.95 14.1071C75.5858 19.0785 79.9768 24.3339 84.7453 29.1714Z" fill="#24AE5F"/>
<path d="M58.3809 29.2613C50.5148 29.3346 41.8424 29.2674 33.8242 29.2693C34.9824 27.6065 44.1819 13.5128 45.8622 11.84C50.7235 16.729 54.4612 23.6057 58.3809 29.2613Z" fill="#4FBA6F"/>
<path d="M70.9831 14.0374C70.2599 15.395 69.5698 16.683 68.8178 18.0864C68.2545 16.9465 67.7533 15.9324 67.1805 14.7837C67.0292 14.5192 66.9497 14.3892 66.8702 14.2593C66.7435 13.2397 65.847 13.0693 65.1311 12.7066C64.697 12.4866 64.2487 12.2943 63.6683 12.0256C63.3322 11.9412 63.1347 11.9206 62.9372 11.9001C62.8143 11.8663 62.6913 11.8325 62.5176 11.7598C62.2102 11.4957 61.9535 11.2704 61.6034 10.963C62.9238 10.3331 64.2478 9.7741 65.492 9.0745C66.0429 8.76473 66.5563 8.24046 66.8698 7.69091C67.5696 6.46439 68.133 5.16078 68.8719 3.64198C69.5868 5.16443 70.1396 6.4826 70.8231 7.72979C71.1055 8.24522 71.6004 8.72914 72.117 9.01686C73.3673 9.71326 74.6872 10.2859 76.2282 11.0285C75.0491 11.593 73.9979 12.0415 73.0031 12.5911C72.3012 12.9789 71.6758 13.5039 70.9831 14.0374ZM67.1173 12.3977C67.6851 13.2959 68.2529 14.1942 69.0088 15.3899C69.589 13.0554 71.0076 11.8452 73.0168 11.0268C70.9496 10.2619 69.622 8.92904 68.832 6.87592C68.1246 9.0167 66.6755 10.2376 64.3994 10.969C65.5061 11.5451 66.2402 11.9272 67.1173 12.3977Z" fill="#ECC31A"/>
<path d="M25.1891 51.8086C25.8049 50.6309 26.3899 49.5329 27.0593 48.2766C27.5697 49.3155 28.1149 50.2196 28.468 51.1927C28.9719 52.5813 29.8805 53.4395 31.2581 53.9428C32.2058 54.289 33.0907 54.8057 34.2025 55.3422C32.6527 56.1099 31.3077 56.7762 29.9204 57.508C29.4382 58.2505 28.9569 58.9048 28.5689 59.61C28.0439 60.5641 27.5906 61.5572 27.0416 62.6647C26.2952 61.1715 25.6464 59.7894 24.9122 58.4539C24.6814 58.034 24.2787 57.6329 23.8557 57.4064C22.5365 56.7 21.1699 56.0813 19.6301 55.3358C21.1426 54.6224 22.4851 54.0741 23.7336 53.3623C24.3041 53.037 24.6892 52.3896 25.1891 51.8086ZM26.224 58.1297C26.4696 58.5684 26.7152 59.007 26.9608 59.4457C27.058 59.4607 27.1552 59.4757 27.2524 59.4906C27.7989 57.4115 29.2158 56.1571 31.1875 55.2965C29.1209 54.5553 27.7853 53.2742 27.052 51.2156C26.2137 53.2419 24.9189 54.6185 22.745 55.2273C24.0091 56.3106 25.7176 56.3818 26.224 58.1297Z" fill="#ECC31A"/>
<path d="M62.9777 11.9437C63.1348 11.9207 63.3323 11.9412 63.586 12.0124C63.4342 12.0378 63.2261 12.0125 62.9777 11.9437Z" fill="#1B8347"/>
<path d="M41.9737 13.2569C36.6444 13.257 31.4199 13.257 26.1954 13.257C26.1952 13.1563 26.195 13.0555 26.1948 12.9548C31.867 12.9548 37.5391 12.9548 43.2113 12.9548C43.2196 13.0274 43.228 13.1 43.2363 13.1726C42.8504 13.2006 42.4645 13.2287 41.9737 13.2569Z" fill="#1B8347"/>
<path d="M67.0458 12.3535C66.2402 11.9272 65.5061 11.5451 64.3994 10.969C66.6755 10.2376 68.1246 9.0167 68.832 6.87592C69.622 8.92904 70.9496 10.2619 73.0168 11.0268C71.0076 11.8452 69.589 13.0554 69.0088 15.3899C68.253 14.1942 67.6851 13.2959 67.0458 12.3535Z" fill="#F3D55A"/>
<path d="M26.1877 58.055C25.7175 56.3818 24.0091 56.3106 22.745 55.2273C24.9189 54.6185 26.2137 53.2419 27.0519 51.2156C27.7853 53.2742 29.1209 54.5553 31.1874 55.2965C29.2158 56.1571 27.7989 57.4115 27.2524 59.4906C27.1552 59.4757 27.058 59.4607 26.9608 59.4457C26.7152 59.007 26.4696 58.5684 26.1877 58.055Z" fill="#F3D55A"/>
</svg>
