<svg width="30" height="29" viewBox="0 0 30 29" fill="none" xmlns="http://www.w3.org/2000/svg">
<g clip-path="url(#clip0_98_2153)">
<path d="M13.9219 3.11691C13.327 3.274 12.7322 3.43133 12.1373 3.58801C11.8911 3.65288 11.7285 3.52159 11.5862 3.34831C11.103 2.76041 10.6235 2.16959 10.1369 1.58454C9.87888 1.27428 9.79416 1.26492 9.45386 1.46547C9.18844 1.62198 8.91309 1.76238 8.66631 1.94918C8.68926 2.05507 8.83308 2.08958 8.82307 2.21501C9.05422 2.21753 9.20447 2.04571 9.38492 1.9447C9.78178 1.7225 9.77877 1.71331 10.0679 2.07509C10.4074 2.50004 10.7495 2.9232 11.0726 3.36141C11.1851 3.50483 11.2987 3.64629 11.4205 3.78229C11.6453 4.03363 11.92 4.07758 12.2222 3.99546C12.8187 3.83333 13.4143 3.66867 14.0216 3.55073C14.3375 3.48936 14.5527 3.31592 14.6441 3.00101C14.7899 2.3178 14.8725 1.62369 14.9989 0.937069C15.0928 0.426741 15.0896 0.428125 15.5997 0.369766C15.8795 0.337779 16.1535 0.391905 16.4295 0.415427C16.5879 0.428938 16.6007 0.559817 16.6235 0.675963C16.7476 1.30675 16.8384 1.94316 16.9397 2.57777C16.9573 2.68765 16.9808 2.79566 17.0024 2.9044C17.0838 3.27091 17.3171 3.47487 17.6789 3.55505C18.2837 3.68902 18.886 3.83333 19.4829 3.99969C19.9083 4.11828 20.2044 3.931 20.4274 3.58394C20.8327 3.00459 21.2849 2.46097 21.7172 1.90205C21.8413 1.74155 21.9681 1.71721 22.1458 1.82441C22.4381 2.0007 22.7251 2.18684 23.0287 2.34377C23.22 2.44266 23.1998 2.58664 23.129 2.74715C22.9143 3.23387 22.713 3.72638 22.5006 4.21416C22.3435 4.57497 22.1337 4.92675 22.213 5.34942C22.3075 5.62826 22.5422 5.79374 22.7453 5.97671C23.1577 6.34826 23.562 6.72877 23.9594 7.11546C24.2382 7.38674 24.522 7.46854 24.8841 7.31007C25.5091 7.03651 26.142 6.78118 26.7725 6.52049C26.9313 6.4548 27.0851 6.35852 27.2702 6.39449C27.3416 6.41492 27.3713 6.51568 27.4636 6.49574C27.52 6.38668 27.4941 6.24408 27.6017 6.15569C27.4758 5.93918 27.2967 5.93837 27.0892 6.02147C26.3824 6.30447 25.6707 6.57567 24.9682 6.8686C24.6557 6.99883 24.4111 6.99297 24.1557 6.7304C23.7463 6.3096 23.3067 5.91753 22.8695 5.52482C22.6678 5.34356 22.6409 5.1509 22.7267 4.90558C22.9784 4.18616 23.2856 3.4892 23.5683 2.78231C23.7213 2.39952 23.6844 2.29265 23.3288 2.08397C22.9249 1.84703 22.5211 1.60953 22.1121 1.38147C21.8652 1.24375 21.757 1.26972 21.579 1.48972C21.1045 2.07599 20.6314 2.66356 20.1607 3.25284C19.8557 3.63457 19.7716 3.65727 19.3087 3.52656C18.8357 3.39291 18.361 3.26187 17.8812 3.15622C17.593 3.09282 17.4685 2.91709 17.419 2.65363C17.2846 1.93665 17.147 1.22023 17.0172 0.502435C16.9417 0.0848126 16.8462 -0.00195115 16.4178 -0.0014628C15.9967 -0.000974447 15.5755 -0.00276531 15.1545 0.00236239C14.8607 0.00594364 14.7396 0.112161 14.6887 0.404114C14.6451 0.653906 14.6181 0.906791 14.5376 1.14901C14.3602 1.57583 14.3308 2.03814 14.2207 2.48124C14.1626 2.71516 14.0847 2.93451 13.9218 3.11667L13.9219 3.11691Z" fill="#EBA511"/>
<path d="M16.7302 27.805C16.915 27.7073 16.981 27.5393 17.0171 27.3453C17.0772 27.0218 17.1486 26.7003 17.2152 26.378C17.3556 26.1511 17.363 25.8887 17.4142 25.638C17.4212 25.5349 17.4473 25.4347 17.4633 25.3329C17.508 25.0496 17.666 24.8838 17.9494 24.8185C18.5063 24.6902 19.0585 24.5423 19.6066 24.3805C19.804 24.3222 19.9527 24.3603 20.0996 24.5089C20.3178 24.7294 20.5111 24.9708 20.7191 25.1995C20.9873 25.5422 21.2851 25.8601 21.5592 26.1979C21.6348 26.291 21.7242 26.3688 21.841 26.4087C21.9475 26.4394 22.0435 26.405 22.1358 26.3573C22.5276 26.1547 22.8955 25.9101 23.2851 25.7036C23.3209 25.6847 23.3427 25.6507 23.3623 25.6162L23.3561 25.6037C23.3458 25.4761 23.3408 25.3468 23.2374 25.2505C23.1062 25.2116 23.0084 25.2909 22.9065 25.3483C22.6576 25.4887 22.4035 25.6204 22.1601 25.7696C22.0258 25.8518 21.9418 25.839 21.8377 25.7163C21.4628 25.2745 21.1064 24.8175 20.7296 24.3775C20.519 24.1316 20.3206 23.8646 19.9756 23.7872C19.8221 23.7631 19.6746 23.7977 19.5303 23.8402C18.9218 24.0195 18.3095 24.185 17.6894 24.3174C17.2818 24.4044 17.0626 24.644 16.9779 25.046C16.8454 25.6749 16.7831 26.3151 16.6543 26.9443C16.573 27.3416 16.5631 27.3512 16.1574 27.3521C15.9196 27.3526 15.6817 27.3537 15.4439 27.3517C15.126 27.3491 15.0824 27.3157 15.023 26.9943C14.9653 26.6825 14.9062 26.3711 14.8475 26.0597C14.7694 25.7035 14.7136 25.3427 14.6445 24.9845C14.5793 24.6466 14.3972 24.4311 14.0582 24.342C13.4063 24.1705 12.7491 24.0206 12.1058 23.8143C11.7963 23.7151 11.5044 23.7798 11.262 24.0429C10.8748 24.4633 10.5202 24.9108 10.143 25.3393C10.0221 25.4766 9.89362 25.6055 9.76551 25.7352C9.69291 25.8087 9.61209 25.854 9.51165 25.7932C9.12585 25.5599 8.7009 25.3901 8.35914 25.0848C8.13238 25.07 8.08184 25.1387 8.09616 25.4407C8.1454 25.5885 8.28108 25.6385 8.39935 25.7084C8.76496 25.91 9.12553 26.1208 9.49155 26.3216C9.76454 26.4714 9.83657 26.4571 10.0521 26.2428C10.2591 26.037 10.4395 25.8077 10.6269 25.5846C10.94 25.2262 11.2672 24.8803 11.5819 24.5234C11.746 24.3374 11.9378 24.3025 12.1627 24.369C12.6574 24.5155 13.1478 24.6787 13.6532 24.7848C13.9886 24.8552 14.1892 25.0362 14.227 25.3865C14.238 25.4882 14.2747 25.5871 14.2874 25.69C14.3732 26.1405 14.4832 26.5856 14.5646 27.037C14.6951 27.8227 14.7579 27.8757 15.5576 27.8757C15.8506 27.8757 16.1436 27.8769 16.4367 27.8748C16.5394 27.8741 16.6442 27.8783 16.7301 27.805H16.7302Z" fill="#955402"/>
<path d="M5.57578 22.7032C5.72342 22.6821 5.87668 22.6797 6.01757 22.6366C6.51048 22.4861 6.84598 22.7599 7.18075 23.0458C7.37226 23.2094 7.56183 23.3753 7.75586 23.5357C8.06686 23.7929 8.24682 24.1074 8.20531 24.5237C8.26912 24.5177 8.30086 24.4708 8.3274 24.4222C8.55546 24.0042 8.71539 23.5563 8.89657 23.1179C8.91481 23.0738 8.91147 23.0245 8.89796 22.9776C8.80297 22.8128 8.64499 22.7178 8.49197 22.62C7.91686 22.2523 7.29193 22.01 6.62264 21.8757C6.22602 21.7961 5.82516 21.7358 5.43725 21.6143C5.2734 21.563 5.1304 21.4875 5.02019 21.3548C4.84862 21.2778 4.69617 21.3718 4.5403 21.4147C4.19406 21.5097 4.12838 21.4877 3.94191 21.1772C3.80354 20.9469 3.66819 20.7147 3.52584 20.4869C3.47928 20.4122 3.45047 20.3066 3.32797 20.3151C3.13621 20.4722 2.94437 20.6294 2.75261 20.7866C2.79738 21.1161 2.99679 21.3701 3.21606 21.5855C3.63433 21.9963 4.10315 22.3475 4.65458 22.5725C4.95174 22.6938 5.25249 22.7728 5.57553 22.7032H5.57578Z" fill="#CA7D00"/>
<path d="M3.18859 7.8737C3.10198 8.15874 2.90273 8.38257 2.77055 8.64294C2.74198 8.69926 2.70316 8.7503 2.67345 8.80613C2.47738 9.17533 2.46924 9.21008 2.78838 9.49219C3.18427 9.84217 3.60849 10.1601 4.00877 10.5054C4.24229 10.7068 4.47319 10.918 4.66829 11.1553C4.87543 11.4073 4.8826 11.7253 4.83938 12.0387C4.83091 12.1002 4.79022 12.1591 4.85362 12.2127C4.97604 12.2211 4.98857 12.1155 5.01543 12.0415C5.23804 11.4293 5.4298 10.8072 5.60682 10.1804C5.67764 9.92959 5.56393 9.74165 5.3891 9.58994C4.71713 9.00684 4.02 8.45419 3.31954 7.90585C3.28227 7.87671 3.24027 7.85108 3.1885 7.87379L3.18859 7.8737Z" fill="#D28A07"/>
<path d="M16.7301 27.805C16.2137 27.8057 15.6972 27.8107 15.1809 27.8055C14.8733 27.8024 14.7797 27.7178 14.7102 27.4145C14.6784 27.2755 14.6498 27.1357 14.6197 26.9962C14.3408 26.6905 13.9778 26.5148 13.612 26.3426C13.4525 26.2675 13.2872 26.2113 13.1137 26.1866C13.0365 26.1756 12.9357 26.1473 12.9145 26.2762C13.5456 26.4821 13.546 27.0638 13.6733 27.5639C13.7706 27.946 13.8365 28.3358 13.9284 28.7194C14.0089 29.0548 14.1201 29.1135 14.4603 29.1422C14.9433 29.183 15.4261 29.1783 15.9093 29.1874C16.1185 29.1913 16.2582 29.1092 16.3409 28.9202C16.4991 28.5584 16.6661 28.1997 16.7301 27.805Z" fill="#E39504"/>
<path d="M27.6016 6.15585C27.3635 6.18556 27.4466 6.35396 27.4569 6.49094C27.419 6.57925 27.4807 6.64046 27.517 6.70793C27.6629 6.97945 27.8215 7.24414 27.9818 7.50696C28.0765 7.66209 28.0581 7.76481 27.9195 7.8685C27.3123 8.32324 26.7319 8.81314 26.1116 9.25151C26.0687 9.28716 26.0243 9.32021 25.9803 9.35391C25.6546 9.60345 25.5591 9.87856 25.6697 10.2736C25.8342 10.861 26.014 11.4441 26.1925 12.0272C26.3467 12.531 26.5887 12.706 27.1241 12.756C27.7861 12.8178 28.4483 12.8796 29.1085 12.958C29.2601 12.976 29.432 12.9589 29.5473 13.0999C29.6129 13.4128 29.5599 13.7288 29.5769 14.0425C29.5841 14.1755 29.5574 14.3124 29.6234 14.4383C29.839 14.5085 29.886 14.4603 29.9172 14.1361C29.9224 14.1048 29.9599 14.1529 29.9343 14.1339C29.9273 14.1288 29.9197 14.1349 29.9197 14.1524C29.9202 14.319 29.8014 14.4908 29.9408 14.6514C29.9995 14.0992 29.9925 13.5463 29.9454 12.9943C29.9227 12.7279 29.7023 12.681 29.4972 12.6513C29.0821 12.5914 28.6645 12.5495 28.2482 12.498C27.8554 12.4493 27.463 12.398 27.0705 12.3474C26.8652 12.321 26.7113 12.2259 26.6492 12.0182C26.5495 11.6851 26.4529 11.3511 26.355 11.0175C26.3707 10.7657 26.2748 10.5372 26.1952 10.3083C26.1067 10.0543 26.1723 9.87359 26.3789 9.70487C26.766 9.38899 27.1535 9.07416 27.5501 8.77032C27.6561 8.6891 27.7741 8.61747 27.8346 8.4892C27.9588 8.3422 28.1216 8.24193 28.2723 8.12676C28.5382 7.92336 28.575 7.78247 28.4086 7.49711C28.1459 7.04628 27.9139 6.57665 27.6014 6.15569L27.6016 6.15585Z" fill="#DE9307"/>
<path d="M12.9146 26.2762C13.1439 26.1639 13.3491 26.2864 13.532 26.3795C13.8752 26.554 14.2834 26.6411 14.4957 27.019C14.5423 27.1019 14.5825 27.0288 14.6198 26.9962C14.5259 26.55 14.4321 26.1039 14.3384 25.6577C13.9884 25.4973 13.6068 25.4678 13.2354 25.4055C12.5796 25.2956 11.9264 25.323 11.2873 25.5227C11.0548 25.5954 10.8191 25.5647 10.5839 25.5644C10.3902 25.7822 10.1926 25.9966 10.0043 26.219C9.87581 26.3707 9.73989 26.3947 9.56758 26.2971C9.1909 26.0839 8.81056 25.8772 8.43167 25.6678C8.34336 25.8059 8.43949 25.9101 8.50476 26.0112C8.96699 26.7273 9.55285 26.972 10.3886 26.8049C10.6274 26.588 10.8629 26.3675 11.1059 26.1555C11.3126 25.9752 11.5435 25.8948 11.8247 25.98C12.1847 26.0892 12.5509 26.1784 12.9145 26.2762H12.9146Z" fill="#D3870A"/>
<path d="M2.75767 16.8789C3.05247 16.9303 3.34808 16.9776 3.64183 17.0341C4.02038 17.1068 4.28466 17.3194 4.42002 17.6867C4.51549 17.9456 4.61756 18.2021 4.71669 18.4597C4.78408 18.4863 4.84041 18.4559 4.89136 18.4194C5.07612 18.2875 5.26047 18.1534 5.42122 17.9933C5.53468 17.8803 5.63072 17.7493 5.50693 17.5803C5.11836 17.2814 4.82747 16.8699 4.38998 16.6247C4.19676 16.5163 4.01216 16.3941 3.80925 16.3016C3.31284 16.0753 2.90596 15.7484 2.66195 15.2456C2.63468 15.1895 2.61132 15.1284 2.55484 15.0911C2.25938 15.0151 1.9527 14.9817 1.67043 14.8561C1.57479 14.8742 1.5682 14.9468 1.57797 15.0205C1.6443 15.5215 1.75947 16.0038 2.08634 16.4112C2.26549 16.6344 2.48647 16.7909 2.7575 16.8789L2.75767 16.8789Z" fill="#E39504"/>
<path d="M23.2078 25.2706C23.3139 25.3563 23.2054 25.5376 23.356 25.6036C23.7441 25.3292 23.7659 25.2626 23.586 24.8293C23.4076 24.3999 23.2233 23.9729 23.0433 23.5441C23.0069 23.4575 22.9598 23.373 22.9645 23.2741C22.9888 23.1906 22.9543 23.1196 22.9175 23.0489C22.7306 22.5939 22.7482 22.5095 23.1062 22.1571C23.4718 21.7847 23.8477 21.4226 24.2103 21.0475C24.4006 20.8507 24.6039 20.786 24.8722 20.8727C25.1954 20.977 25.5214 21.0735 25.8462 21.1737C26.1228 21.2584 26.4041 21.3272 26.6782 21.4205C26.9381 21.4786 27.1834 21.5907 27.448 21.6321C27.6593 21.6144 27.7113 21.4381 27.7876 21.2877C27.8298 21.2046 27.8517 21.1133 27.883 21.0258C27.9163 20.9475 27.9495 20.8691 27.9828 20.7907C27.8791 20.6619 27.7595 20.7441 27.6444 20.7649C27.4702 21.0357 27.2615 21.0469 26.962 20.9371C26.3324 20.7064 25.6794 20.5416 25.0383 20.3423C24.895 20.2978 24.7505 20.2556 24.5984 20.2521C24.4977 20.2533 24.3974 20.2566 24.3076 20.3111C24.19 20.3796 24.0857 20.4668 23.9977 20.5692C23.5465 21.0938 23.0113 21.5338 22.5323 22.0306C22.1843 22.3914 22.1331 22.5983 22.3509 23.0541C22.6111 23.5987 22.8466 24.154 23.0971 24.7027C23.1795 24.8832 23.2634 25.0633 23.2077 25.2707L23.2078 25.2706Z" fill="#A46103"/>
<path d="M27.6512 20.7951C27.7618 20.7936 27.8724 20.7922 27.983 20.7906C28.1279 20.5565 28.2795 20.3264 28.4158 20.0874C28.5742 19.8095 28.5485 19.6995 28.2888 19.5065C27.6864 19.059 27.0765 18.6215 26.4784 18.1684C26.0525 17.8458 26.0548 17.8236 26.2231 17.3137C26.3485 17.1609 26.4064 16.9816 26.4298 16.7888C26.521 16.462 26.5993 16.1315 26.7049 15.8087C26.7642 15.6277 26.8814 15.512 27.074 15.4846C27.7459 15.3887 28.4162 15.2823 29.0886 15.1891C29.2372 15.1801 29.3923 15.1942 29.5094 15.0723C29.7183 14.9988 29.9671 14.9663 29.941 14.6516C29.941 14.4634 29.941 14.2751 29.941 14.0345C29.8379 14.2099 29.9147 14.4562 29.6559 14.4543C29.5042 14.6173 29.3007 14.6398 29.096 14.6674C28.3927 14.7622 27.6857 14.8254 26.9811 14.9092C26.8149 14.9289 26.654 14.9638 26.5144 15.063C26.3849 15.1554 26.3192 15.2901 26.2779 15.4371C26.0832 16.1309 25.9038 16.8289 25.703 17.5212C25.6147 17.8259 25.7189 18.0796 25.9845 18.2662C26.6197 18.7123 27.2523 19.1622 27.8686 19.634C27.9688 19.7108 28.1143 19.7715 28.0677 19.9468C27.9689 20.1523 27.8528 20.3477 27.7317 20.5406C27.6838 20.6169 27.6048 20.6874 27.6513 20.7952L27.6512 20.7951Z" fill="#C37803"/>
<path d="M23.3623 25.6161C22.9649 25.7689 22.6276 26.0312 22.2534 26.2262C22.1215 26.2948 21.9964 26.3808 21.8372 26.3688C21.6616 26.2898 21.4948 26.3963 21.3224 26.3936C20.9254 26.3872 20.5281 26.4089 20.1313 26.3801C20.0082 26.3713 19.8883 26.3618 19.8357 26.5099C20.1886 26.9045 20.5364 27.304 20.8968 27.6918C21.0887 27.8981 21.3167 27.9511 21.5805 27.7995C21.9989 27.5589 22.4413 27.3604 22.8387 27.0833C22.9023 27.0389 22.9775 26.985 23.0045 26.9181C23.1609 26.5303 23.3265 26.1443 23.3953 25.7279C23.401 25.6934 23.3742 25.6535 23.3625 25.6161H23.3623Z" fill="#E39504"/>
<path d="M8.8657 22.9921C8.68086 23.5178 8.476 24.0349 8.20545 24.5237C8.13846 24.6946 8.07148 24.8654 8.00449 25.0364C7.92196 25.3274 7.93987 25.3815 8.14644 25.4655C8.14904 25.3864 8.13423 25.3011 8.15922 25.2298C8.18323 25.1616 8.21709 25.0451 8.33958 25.1352C8.44718 25.1325 8.45695 25.0369 8.48275 24.9698C8.73352 24.3169 9.0608 23.6987 9.34339 23.0603C9.50113 22.7042 9.45612 22.4082 9.14007 22.1133C8.67573 21.6801 8.21953 21.2391 7.77456 20.7864C7.60779 20.6166 7.45485 20.4325 7.23965 20.3184C7.07255 20.2346 6.90285 20.247 6.72981 20.2998C6.06874 20.5012 5.41183 20.7157 4.75345 20.9254C4.21634 21.0965 4.21667 21.0913 3.92813 20.6126C3.85097 20.4844 3.79538 20.34 3.67199 20.2431C3.56235 20.2018 3.45142 20.1798 3.33649 20.222C3.33373 20.253 3.33096 20.2841 3.32811 20.3151C3.55552 20.609 3.72205 20.9408 3.91373 21.2569C4.08685 21.5425 4.17638 21.5804 4.49698 21.4943C4.66424 21.4493 4.83126 21.4037 4.99835 21.3583C5.27419 21.3665 5.52187 21.249 5.77785 21.1751C6.12726 21.0743 6.48018 20.9839 6.82406 20.8648C7.01549 20.7985 7.18381 20.8264 7.32967 20.9631C7.81452 21.4174 8.28163 21.8896 8.73995 22.3705C8.91454 22.5538 8.89199 22.7711 8.86554 22.9919L8.8657 22.9921Z" fill="#A46102"/>
<path d="M3.18858 7.8737C3.86454 8.42448 4.54205 8.97339 5.21597 9.52669C5.61675 9.85568 5.63547 9.92462 5.47773 10.4244C5.31324 10.9458 5.14475 11.4659 4.97562 11.9858C4.949 12.0677 4.92613 12.1544 4.85361 12.2128C4.71557 12.3735 4.51185 12.3636 4.33393 12.3871C3.60677 12.4829 2.87742 12.5629 2.14798 12.6396C1.80573 12.6756 1.67932 12.7547 1.60338 13.0255C1.57807 13.2111 1.59199 13.3972 1.59557 13.5831C1.82217 13.7522 1.77724 13.999 1.78261 14.2325C1.78725 14.434 1.78961 14.434 1.91983 14.486C2.00334 14.3491 1.97176 14.1969 1.97421 14.0506C1.97909 13.7614 1.97469 13.4721 1.97714 13.1833C1.96875 13.004 2.11111 13.0108 2.22286 12.9937C2.66213 12.9264 3.10596 12.8989 3.54751 12.8517C3.91809 12.8121 4.29062 12.789 4.66039 12.7432C4.97993 12.7037 5.23136 12.5539 5.35279 12.2366C5.61398 11.554 5.81958 10.853 6.03868 10.1567C6.12919 9.86911 5.97691 9.62721 5.77815 9.45767C5.31421 9.06203 4.84344 8.67273 4.3511 8.31183C4.11604 8.17819 3.9281 7.9835 3.71803 7.81746C3.60018 7.72427 3.58813 7.62244 3.66773 7.48725C3.75417 7.34058 3.87251 7.20515 3.88741 7.02324C3.8293 6.89976 3.75751 6.97383 3.70859 7.0225C3.64242 7.08835 3.5677 7.1087 3.48151 7.11146C3.36674 7.35898 3.13706 7.56238 3.18841 7.8737H3.18858Z" fill="#D28A07"/>
<path d="M3.48174 7.11148C3.54669 7.19083 3.60415 7.25334 3.6897 7.12214C3.72209 7.07249 3.74895 6.96692 3.85647 7.0169C3.97669 7.02007 4.00118 6.91377 4.04896 6.84077C4.1341 6.71078 4.20442 6.57054 4.32887 6.47068C4.53235 6.34151 4.71369 6.46376 4.88763 6.53595C5.38973 6.74448 5.88509 6.9692 6.3854 7.18229C6.55226 7.25334 6.72082 7.31976 6.88865 7.38845C7.19094 7.53016 7.42739 7.39301 7.63827 7.19653C7.96742 6.88985 8.27573 6.56175 8.61571 6.26516C8.80576 6.09937 8.9941 5.93007 9.18692 5.76761C9.32545 5.6509 9.42645 5.51896 9.48799 5.35219C9.55416 5.20145 9.51005 5.05877 9.45828 4.91544C9.24064 4.31281 8.94632 3.74258 8.71167 3.14711C8.68278 3.0737 8.649 3.00207 8.61954 2.92874C8.52007 2.68152 8.56907 2.47319 8.76653 2.30373C8.79721 2.27744 8.82383 2.24936 8.81561 2.20402C8.97359 1.99729 8.78403 1.99436 8.66625 1.94926C8.52227 2.04726 8.37454 2.14737 8.22535 2.22779C8.02448 2.33596 8.02822 2.47042 8.08145 2.63556C8.12695 2.77662 8.1932 2.91108 8.25034 3.04838C8.33311 3.50613 8.55442 3.9135 8.72323 4.33967C8.79624 4.5241 8.86412 4.71025 8.93363 4.8959C9.02104 5.12942 8.97009 5.32354 8.79078 5.50122C8.60586 5.68459 8.40043 5.84933 8.24896 6.0651C7.97035 6.37984 7.65691 6.65812 7.33989 6.93274C7.22049 7.03619 7.09514 7.01804 6.9619 6.96709C6.16328 6.66195 5.36426 6.35787 4.56499 6.0546C4.24398 5.93276 4.15282 5.96165 3.981 6.24994C3.81105 6.53498 3.64786 6.824 3.48174 7.11131V7.11148Z" fill="#E39A0B"/>
<path d="M19.8356 26.51C19.9546 26.3697 20.0997 26.4724 20.2333 26.4667C20.7685 26.4437 21.3108 26.5372 21.8372 26.3687C21.4941 26.1013 21.2716 25.7243 20.9724 25.4169C20.9016 25.3441 20.8388 25.2636 20.7723 25.1867C19.9149 25.3111 19.0435 25.3335 18.197 25.536C17.9195 25.6024 17.6429 25.6541 17.3566 25.6134C17.3301 25.8721 17.2125 26.1139 17.2151 26.3779C17.6607 26.3652 18.0922 26.2476 18.5043 26.1092C19.0709 25.9189 19.4893 26.0521 19.8356 26.51Z" fill="#CA7D00"/>
<path d="M1.89279 14.5022C1.80684 14.313 1.84664 14.1114 1.85746 13.9193C1.86853 13.7237 1.80448 13.6258 1.61784 13.5978C1.47346 13.9609 1.54679 14.3364 1.55737 14.7079C1.5594 14.7806 1.60523 14.8387 1.66993 14.8772C1.93413 15.0844 2.25645 15.0842 2.56639 15.1283C2.74635 15.25 2.95976 15.2425 3.16088 15.2753C3.58355 15.3443 4.0067 15.4111 4.43051 15.4725C4.69723 15.5111 4.86132 15.6416 4.92961 15.9069C5.05031 16.3754 5.20992 16.8329 5.34064 17.2988C5.371 17.4072 5.41153 17.5086 5.47591 17.6005C5.55177 17.7397 5.48747 17.8468 5.38882 17.9369C5.17875 18.1286 4.96338 18.3145 4.71685 18.4598C4.39844 18.758 4.02534 18.9853 3.6852 19.2553C3.54619 19.3657 3.40033 19.4672 3.26001 19.5759C3.06003 19.7308 3.09169 19.9891 3.33676 20.2222C3.43492 20.2893 3.54757 20.263 3.65484 20.2717C3.69863 20.1239 3.55213 20.0404 3.53471 19.9134C3.505 19.7704 3.62107 19.7219 3.70531 19.657C4.30517 19.1944 4.90478 18.7315 5.52206 18.292C5.61216 18.2278 5.69933 18.1599 5.77055 18.0734C5.91486 17.8908 5.94359 17.6909 5.86895 17.4711C5.63536 16.7833 5.4239 16.0887 5.23581 15.3869C5.19519 15.2353 5.08263 15.1319 4.97063 15.0303C4.82087 14.9218 4.64555 14.9141 4.47096 14.903C3.82447 14.8314 3.17829 14.7574 2.53391 14.6677C2.3135 14.637 2.09505 14.6021 1.89287 14.5023L1.89279 14.5022Z" fill="#B77204"/>
<path d="M8.1464 25.4655C7.96653 25.3662 8.02293 25.1889 8.00437 25.0364C7.74579 25.5101 7.58056 26.0225 7.39279 26.5251C7.34859 26.6433 7.41843 26.7347 7.52457 26.8017C8.00095 27.1024 8.48784 27.384 8.99459 27.6306C9.16307 27.7125 9.33163 27.7352 9.48473 27.607C9.79353 27.3483 10.1291 27.1193 10.3884 26.8048C10.324 26.723 10.2502 26.7726 10.1736 26.7825C9.38763 26.8843 8.70434 26.4665 8.4316 25.6678C8.33653 25.6003 8.24147 25.5329 8.1464 25.4654V25.4655Z" fill="#E39504"/>
<path d="M8.24893 6.06526C8.53242 5.88612 8.75462 5.6395 8.96836 5.38816C9.0937 5.24084 9.06253 5.05429 8.9975 4.89004C8.75365 4.27415 8.50019 3.662 8.25032 3.04846C8.25089 3.24901 8.068 3.3348 7.97684 3.47781C7.92255 3.56294 7.83416 3.62586 7.76416 3.70163C7.38927 4.10713 7.35419 4.34121 7.60415 4.82956C7.81577 5.24312 8.03382 5.6535 8.24902 6.06526H8.24893Z" fill="#E39A0B"/>
<path d="M1.66989 14.8772C1.54552 14.455 1.60689 14.0253 1.6178 13.5977C1.61299 13.4069 1.60819 13.2161 1.60347 13.0254C1.61129 13.4688 1.49994 13.846 1.07548 14.0804C0.98652 14.1295 0.956078 14.275 0.955996 14.3818C0.955427 14.9907 0.920267 15.5996 0.977811 16.2089C1.00329 16.4783 1.17511 16.5875 1.38681 16.6331C1.84032 16.7309 2.30035 16.7988 2.75769 16.8788C2.24053 16.5839 1.87792 16.162 1.75063 15.5742C1.70163 15.3481 1.59061 15.1211 1.66997 14.8772H1.66989Z" fill="#EEA820"/>
<path d="M27.4591 21.6004C27.2046 21.523 26.95 21.4456 26.6955 21.3682C26.1994 21.6103 25.6714 21.7468 25.1331 21.8587C24.5228 21.9855 23.9336 22.1701 23.4608 22.6105C23.3306 22.7318 23.1599 22.7849 22.9997 22.8538C22.8961 22.8983 22.8152 22.9556 22.8774 23.0874C22.9065 23.1495 22.9355 23.2118 22.9647 23.274C23.1506 23.116 23.335 22.9562 23.5226 22.8003C23.8419 22.5349 24.1979 22.4351 24.6043 22.5661C24.6637 22.5852 24.727 22.5921 24.7884 22.6046C24.8081 22.6184 24.8287 22.6307 24.8536 22.6272C25.6948 22.507 26.5382 22.3921 27.2774 21.9238C27.3892 21.853 27.5545 21.795 27.4592 21.6003L27.4591 21.6004Z" fill="#E39504"/>
<path d="M5.57581 22.7032C4.79159 22.6861 4.17244 22.2987 3.57926 21.8349C3.21462 21.5498 2.9667 21.1846 2.75288 20.7866C2.47078 20.9331 2.41063 21.0881 2.53931 21.3591C2.77022 21.8454 3.02726 22.318 3.30236 22.7804C3.45758 23.0413 3.5948 23.094 3.91581 23.041C4.47335 22.9488 5.03219 22.8635 5.57581 22.7032Z" fill="#E39504"/>
<path d="M29.5094 15.0723L29.0828 15.1292C29.1046 15.2313 29.0653 15.2973 28.9867 15.3702C28.6947 15.6408 28.369 15.8614 28.0222 16.0511C27.6275 16.267 27.2221 16.4624 26.8171 16.6585C26.6737 16.7279 26.5125 16.7288 26.3679 16.7896C26.3196 16.9643 26.2714 17.1391 26.2232 17.3138C26.5318 17.0738 26.9179 17.0756 27.273 16.9864C27.6618 16.8886 28.0582 16.8209 28.4517 16.7422C28.5559 16.7214 28.6586 16.6873 28.7161 16.5987C29.0292 16.1155 29.3354 15.628 29.5095 15.0723H29.5094Z" fill="#EDA615"/>
<path d="M27.8348 8.48935C27.2689 8.88337 26.7382 9.32215 26.2165 9.77152C26.0884 9.88181 26.0452 10.0264 26.1056 10.202C26.1978 10.4708 26.2728 10.7456 26.3552 11.0177C26.4174 10.8363 26.5701 10.7256 26.7035 10.6105C27.2062 10.177 27.4865 9.58928 27.8189 9.03818C27.9219 8.86725 27.9045 8.6746 27.8348 8.48935Z" fill="#C37803"/>
<path d="M27.4591 21.6004C27.4717 21.7122 27.406 21.7668 27.3191 21.8228C26.8407 22.1314 26.3167 22.3134 25.7592 22.4128C25.4345 22.4706 25.1118 22.5403 24.7883 22.6046C25.3792 22.7974 25.9832 22.9414 26.5896 23.0727C26.7963 23.1175 26.9375 22.9552 27.0311 22.8037C27.3338 22.3136 27.6489 21.8283 27.8445 21.2801C27.8742 21.1969 27.8982 21.1148 27.8832 21.0258C27.7713 21.1422 27.7405 21.3045 27.6519 21.4348C27.6016 21.5088 27.5485 21.5744 27.4591 21.6004Z" fill="#EDA615"/>
<path d="M13.9219 3.1169C14.0991 3.09892 14.1561 2.95225 14.1941 2.8217C14.3536 2.27409 14.4549 1.7133 14.5377 1.14917C14.2053 1.76531 13.92 2.3961 13.922 3.11682L13.9219 3.1169Z" fill="#EBA511"/>
<path d="M8.81565 2.20401C8.37035 2.4888 8.36645 2.49043 8.57677 2.99026C8.82827 3.58792 9.08807 4.18216 9.34275 4.77852C9.42023 4.95995 9.49772 5.14267 9.44327 5.34794C9.51701 5.45717 9.37758 5.59057 9.48282 5.69646C9.58765 5.72096 9.69298 5.7287 9.7283 5.8691C9.81808 6.22608 10.0701 6.38797 10.4249 6.41247C10.8135 6.22893 11.1512 5.96001 11.535 5.76605C12.6469 5.20421 13.8154 4.8521 15.0585 4.73832C17.0503 4.55592 18.8893 5.01497 20.6021 6.02513C20.8561 6.17489 21.0852 6.35981 21.3202 6.53635C21.3954 6.59275 21.4614 6.66853 21.5684 6.66226C21.5997 6.65795 21.6293 6.63809 21.6598 6.63858C21.8794 6.64254 21.9697 6.53269 21.9308 6.30902C21.8696 5.95619 21.9407 5.84289 22.2584 5.7873C22.3387 5.64201 22.2047 5.53702 22.1819 5.41078C22.1629 5.30538 22.2289 5.35893 22.2606 5.34591C22.2068 4.77332 22.5454 4.322 22.7357 3.82607C22.8857 3.43523 23.0585 3.05301 23.2242 2.66827C23.2853 2.52632 23.2825 2.41677 23.128 2.3309C22.7688 2.131 22.4137 1.92353 22.0597 1.71427C21.9489 1.64884 21.8632 1.64094 21.7728 1.75058C21.2952 2.32919 20.8257 2.91399 20.3995 3.53217C20.2727 4.02125 19.8877 4.25184 19.4214 4.1221C18.8031 3.95003 18.1737 3.82119 17.5547 3.65133C17.1905 3.55138 16.9988 3.263 17.0578 2.91554C16.9299 2.12254 16.8023 1.32945 16.6737 0.536613C16.6504 0.392549 16.5755 0.335818 16.4173 0.328493C16.0462 0.311401 15.678 0.289588 15.3054 0.325808C15.1287 0.342981 15.0404 0.380422 15.0005 0.568926C14.8503 1.27891 14.7631 1.99923 14.6319 2.71214C14.6135 2.81242 14.6032 2.91416 14.5891 3.01525C14.6122 3.32934 14.4464 3.55724 14.1108 3.65629C13.7982 3.74851 13.476 3.8019 13.1606 3.88435C12.8608 3.96273 12.5623 4.0451 12.266 4.1361C11.8758 4.25599 11.6203 4.16792 11.4144 3.82176C11.3105 3.64693 11.1388 3.51337 11.0954 3.30199C10.7131 2.81225 10.3288 2.32398 9.94936 1.83197C9.8385 1.68831 9.72919 1.66511 9.57056 1.76612C9.32533 1.92231 9.06772 2.05913 8.81541 2.20409L8.81565 2.20401Z" fill="#FEE56D"/>
<path d="M22.2653 5.77225C22.0077 5.69484 21.8058 5.87936 21.8348 6.16871C21.8393 6.21461 21.8825 6.27053 21.8672 6.30187C21.8218 6.39449 22.1218 6.77142 21.6739 6.5484C21.6233 6.52325 21.5983 6.58641 21.591 6.63598C21.5733 6.74708 21.6703 6.78127 21.7297 6.83832C22.3077 7.39342 22.8661 7.96471 23.3373 8.61772C24.0483 9.60321 24.5203 10.6924 24.7957 11.872C24.8171 11.9638 24.7947 12.0874 24.9253 12.1274C25.0484 12.0389 25.0507 11.8958 25.0717 11.769C25.0962 11.6206 25.1798 11.5391 25.3138 11.521C25.4942 11.4965 25.667 11.4205 25.8537 11.4401C25.9089 11.3345 25.8548 11.2385 25.8233 11.1431C25.7337 10.8724 25.667 10.5948 25.581 10.3238C25.4424 9.88654 25.7015 9.59515 25.9847 9.37442C26.0451 9.32737 26.1134 9.28196 26.1899 9.25738C26.7489 8.88639 27.2544 8.44508 27.7878 8.04032C28.1804 7.74234 28.1776 7.73542 27.9347 7.30926C27.7784 7.03488 27.6164 6.7636 27.4569 6.49102C27.411 6.44194 27.3652 6.39294 27.3193 6.34386C26.5787 6.68742 25.8198 6.98971 25.0808 7.33685C25.0019 7.37388 24.9213 7.40741 24.8425 7.44469C24.476 7.61789 24.2322 7.57964 23.9384 7.2942C23.6824 7.04555 23.4284 6.79453 23.1817 6.53684C22.9508 6.29576 22.6764 6.10286 22.449 5.85852C22.4019 5.80798 22.3491 5.75247 22.2653 5.77225Z" fill="#FEDA5A"/>
<path d="M22.2653 5.77225C22.8231 6.27916 23.3702 6.79705 23.8985 7.33497C24.2012 7.64321 24.4726 7.68073 24.8613 7.50476C25.6392 7.15258 26.412 6.78835 27.2105 6.48353C27.2806 6.45675 27.3102 6.4115 27.3195 6.34378C27.2008 6.244 27.0894 6.32962 26.9881 6.3708C26.3211 6.64233 25.6574 6.92183 24.9931 7.20003C24.4442 7.42988 24.3434 7.4066 23.9215 7.00094C23.4648 6.56183 22.9995 6.13159 22.5369 5.69867C22.4262 5.59506 22.3241 5.48583 22.2605 5.34592C22.1854 5.31857 22.2447 5.20478 22.1481 5.17979C22.0578 5.40598 22.1882 5.58423 22.2653 5.77225H22.2653Z" fill="#FBF5B5"/>
<path d="M11.0956 3.30191C11.0896 3.3072 11.0785 3.31241 11.0785 3.3177C11.0795 3.84097 11.7438 4.35366 12.2318 4.21131C12.5507 4.11827 12.87 4.02622 13.1915 3.94295C13.4973 3.86376 13.8064 3.79775 14.1137 3.72401C14.3718 3.66207 14.5474 3.50393 14.6473 3.2591C14.6864 3.16314 14.7032 3.07401 14.5893 3.01517C14.4876 3.29695 14.2825 3.43629 13.9909 3.4918C13.3912 3.60591 12.8004 3.7586 12.2156 3.93474C11.9189 4.0241 11.6499 3.98569 11.4433 3.72482C11.33 3.58182 11.2117 3.44272 11.0957 3.30191H11.0956Z" fill="#FCF7B9"/>
<path d="M17.058 2.91555C17.0297 2.88967 17.0013 2.86378 16.9704 2.83554C16.9377 3.33683 17.1321 3.60787 17.6016 3.72752C18.2517 3.89323 18.9014 4.06057 19.5511 4.22775C19.8468 4.30385 20.0728 4.17884 20.2273 3.94833C20.3074 3.82877 20.518 3.74062 20.3996 3.53218C20.1266 3.94866 19.7774 4.05227 19.2933 3.88859C18.8001 3.72182 18.2838 3.61821 17.7722 3.51305C17.4157 3.43971 17.1515 3.28808 17.0581 2.91555H17.058Z" fill="#FCF9B3"/>
<path d="M7.23974 20.3669C7.46039 20.524 7.63319 20.7314 7.82226 20.9217C8.24151 21.3436 8.66711 21.7585 9.10467 22.1619C9.41242 22.4457 9.44131 22.7069 9.26917 23.0826C8.9563 23.7655 8.64912 24.4509 8.33959 25.1353C8.4913 25.3565 8.75322 25.4165 8.96093 25.5554C9.13129 25.6694 9.32671 25.7462 9.49584 25.8617C9.61614 25.9439 9.68134 25.9171 9.77453 25.8239C10.2117 25.3869 10.593 24.9013 10.9932 24.4325C11.1327 24.2692 11.2833 24.1187 11.434 23.9678C11.615 23.7865 11.858 23.7954 12.0607 23.863C12.7208 24.0836 13.3984 24.2343 14.07 24.4083C14.3838 24.4897 14.5261 24.6964 14.5823 24.9906C14.6487 25.3386 14.7136 25.6868 14.7792 26.0349C14.8616 26.0528 14.8886 25.9908 14.9215 25.9367C15.0781 25.6799 15.3008 25.5168 15.5975 25.4559C15.6908 25.4367 15.7904 25.4209 15.8641 25.3586C16.0498 25.2018 16.2674 25.1899 16.4937 25.197C16.8643 25.2087 16.917 25.172 17.026 24.8308C17.1071 24.5771 17.2751 24.391 17.526 24.3304C18.2514 24.1551 18.9674 23.9413 19.7008 23.7998C19.8107 23.7786 19.9216 23.7676 20.0197 23.8426C20.394 24.0024 20.6113 24.3318 20.8587 24.6265C21.1982 25.0309 21.5323 25.44 21.8646 25.8503C21.9563 25.9636 22.0336 25.9138 22.129 25.8583C22.4829 25.6523 22.8308 25.4345 23.2079 25.2707C23.3168 25.1712 23.3222 25.0654 23.2603 24.9306C22.9764 24.3127 22.7059 23.6888 22.4216 23.0711C22.1987 22.5866 22.2217 22.4208 22.6031 22.0444C23.1716 21.4837 23.7411 20.9241 24.3102 20.3641C24.2472 20.2565 24.1592 20.3018 24.0805 20.3328C23.9761 20.374 23.8847 20.4408 23.8082 20.5219C23.2242 21.1396 22.5635 21.6769 21.9681 22.2825C21.8985 22.3533 21.8154 22.3936 21.7243 22.4247C21.3047 22.5674 20.871 22.6035 20.4322 22.5884C20.2446 22.582 20.2279 22.5392 20.3446 22.3782C20.4527 22.2292 20.4725 22.0926 20.3243 21.9596C20.1867 21.9427 20.0812 22.0241 19.9705 22.0813C18.9129 22.6272 17.7912 22.9641 16.6061 23.0526C14.7235 23.1931 12.9402 22.842 11.2869 21.9014C10.8302 21.6415 10.3981 21.3474 9.98346 21.0259C9.9155 20.9732 9.85397 20.9051 9.75614 20.9114C9.7082 21.1665 9.46256 21.3224 9.4287 21.5956C9.41209 21.7299 9.26387 21.7475 9.13918 21.6719C8.68428 21.396 8.27863 21.0605 7.92213 20.6656C7.78978 20.5189 7.66615 20.3607 7.48888 20.2652C7.33773 20.1839 7.26594 20.2183 7.23982 20.3667L7.23974 20.3669Z" fill="#DF9613"/>
<path d="M20.0197 23.8425C19.8876 23.6011 19.6663 23.732 19.5149 23.7648C18.828 23.9135 18.1459 24.0877 17.4698 24.2797C17.2111 24.3532 17.0238 24.5439 16.9632 24.8278C16.9169 25.0448 16.8263 25.1746 16.5572 25.1405C16.3059 25.1087 16.0304 25.0841 15.8306 25.3165C15.8163 25.3331 15.7896 25.3451 15.7673 25.3479C15.3178 25.4047 14.9845 25.6275 14.7793 26.0348C14.8477 26.4139 14.9152 26.7931 14.985 27.1719C15.0165 27.3425 15.1048 27.4297 15.2959 27.4231C15.6523 27.4108 16.0093 27.4157 16.366 27.421C16.5568 27.4238 16.6521 27.3473 16.6845 27.1522C16.8042 26.4306 16.9335 25.7105 17.0643 24.9909C17.1242 24.6621 17.3154 24.4757 17.6539 24.3975C18.3216 24.2432 18.9828 24.0604 19.6442 23.8798C19.7707 23.8453 19.8945 23.852 20.0198 23.8424L20.0197 23.8425Z" fill="#D3870A"/>
<path d="M10.5839 25.5644C10.8123 25.7263 11.0644 25.6672 11.2906 25.5954C12.1466 25.324 12.9952 25.3965 13.8492 25.5924C14.0084 25.6289 14.17 25.6766 14.3384 25.6578C14.3393 25.642 14.342 25.6261 14.3411 25.6104C14.3081 25.0492 14.0222 24.7511 13.4557 24.6589C13.0215 24.5882 12.6001 24.4356 12.1759 24.3093C11.924 24.2342 11.7192 24.2612 11.5396 24.4771C11.2312 24.8481 10.8722 25.1751 10.5839 25.5644Z" fill="#955402"/>
<path d="M17.3567 25.6134C17.4979 25.7707 17.6835 25.72 17.842 25.6856C18.5559 25.5307 19.2694 25.3943 20.0032 25.3588C20.2587 25.3465 20.5405 25.3499 20.7725 25.1867C20.555 24.8943 20.3154 24.6215 20.0524 24.3688C19.947 24.2675 19.8281 24.2576 19.6999 24.2916C19.0729 24.4574 18.4468 24.6265 17.82 24.7929C17.608 24.8493 17.4744 24.9769 17.4345 25.1964C17.4092 25.3356 17.3827 25.4745 17.3568 25.6135L17.3567 25.6134Z" fill="#A46103"/>
<path d="M8.86574 22.9921C9.00679 22.7802 8.99491 22.5769 8.82578 22.3868C8.36233 21.8657 7.8577 21.3851 7.35396 20.9039C7.20599 20.7626 7.03328 20.7258 6.82947 20.7968C6.22636 21.0067 5.59736 21.1337 4.99848 21.3584C5.022 21.514 5.13408 21.5717 5.2674 21.6223C5.81655 21.8306 6.40404 21.8735 6.96646 22.0252C7.66919 22.2147 8.31667 22.5046 8.86566 22.9922L8.86574 22.9921Z" fill="#A46102"/>
<path d="M25.8335 11.4505C25.7591 11.3529 25.7019 11.2489 25.5723 11.4145C25.5018 11.5047 25.3561 11.415 25.2381 11.4722C25.104 11.5373 25.0172 11.585 25.0166 11.7538C25.0161 11.8757 24.9595 11.9973 24.9279 12.119C24.8736 12.1904 24.8929 12.2716 24.9028 12.3485C25.0412 13.4243 25.043 14.4976 24.8483 15.5679C24.8413 15.6068 24.8398 15.6466 24.8415 15.6861C24.942 15.9843 25.0984 16.0982 25.4099 16.0245C25.6159 15.9758 25.7715 16.0025 25.9179 16.1418C26.0458 16.1266 26.0429 16.013 26.0687 15.9291C26.1334 15.7178 26.197 15.5066 26.3116 15.3155C26.3609 15.2332 26.4236 15.1633 26.5124 15.121C26.9362 14.9075 27.4054 14.948 27.8555 14.8844C28.3867 14.8093 28.9205 14.753 29.4524 14.6834C29.5774 14.667 29.6833 14.6148 29.6558 14.4542C29.6541 14.0589 29.6542 13.6636 29.6494 13.2684C29.6484 13.1854 29.6821 13.0925 29.6029 13.0229C29.5152 13.0716 29.4217 13.0691 29.3256 13.0589C28.5538 12.9776 27.7796 12.9239 27.0069 12.853C26.5577 12.8118 26.2431 12.6202 26.1321 12.1555C26.0918 11.9866 26.0233 11.8244 25.9708 11.658C25.9451 11.5767 25.9332 11.4838 25.8333 11.4505H25.8335Z" fill="#FDC53F"/>
<path d="M25.8336 11.4505C25.9119 11.6898 26.0015 11.9261 26.0665 12.1689C26.2199 12.7423 26.4927 12.8686 27.0902 12.9296C27.8734 13.0095 28.6616 13.0362 29.4412 13.1526C29.555 13.1696 29.6085 13.1403 29.6031 13.0228C29.2895 12.8407 28.933 12.8796 28.5944 12.8352C28.0149 12.7591 27.4316 12.7121 26.8518 12.6382C26.6004 12.6062 26.41 12.468 26.3312 12.2121C26.1198 11.5254 25.9013 10.8408 25.7045 10.15C25.6297 9.88767 25.7181 9.64903 25.9346 9.46932C26.0197 9.39867 26.1048 9.32802 26.1899 9.25737C25.6796 9.38328 25.396 9.8342 25.5235 10.3374C25.618 10.7106 25.7295 11.0797 25.8336 11.4505Z" fill="#FCEA8B"/>
<path d="M5.47575 17.6005C5.34348 16.9485 5.11005 16.326 4.91984 15.6908C4.87792 15.5509 4.76422 15.4752 4.62162 15.4476C3.94037 15.3163 3.25537 15.2093 2.56631 15.1283C2.71558 15.6166 3.0593 15.9415 3.48058 16.1932C3.70311 16.3261 3.94428 16.4275 4.16949 16.5563C4.55577 16.7772 4.89778 17.0555 5.19421 17.3885C5.27373 17.4779 5.36302 17.555 5.47583 17.6005H5.47575Z" fill="#B77204"/>
<path d="M25.931 16.1212C25.823 15.9314 25.7076 15.8463 25.4634 15.9551C25.2469 16.0516 25.0181 15.9855 24.8914 15.7419C24.7997 15.7993 24.7905 15.8995 24.7691 15.9898C24.4529 17.322 23.87 18.5235 23.0142 19.5932C22.932 19.6959 22.8263 19.7899 22.8101 19.9342C23.0079 19.966 23.1447 20.1125 23.3125 20.201C23.4333 20.2648 23.5638 20.2972 23.7009 20.2585C24.0053 20.1726 24.3035 20.1817 24.5951 20.3103C25.1062 20.3844 25.5798 20.5924 26.0746 20.7253C26.4021 20.8132 26.7275 20.9121 27.0477 21.0236C27.4422 21.1609 27.4395 21.1687 27.6512 20.7952C27.8072 20.5225 27.9632 20.2499 28.1193 19.9773C28.0407 19.8104 27.8842 19.7225 27.7431 19.6265C27.1802 19.2435 26.6291 18.8434 26.0605 18.4688C25.9743 18.4121 25.8942 18.3484 25.8172 18.2795C25.5789 18.0664 25.5151 17.8118 25.6049 17.5059C25.7075 17.1565 25.8213 16.8106 25.9188 16.4598C25.9489 16.3514 26.0207 16.2371 25.931 16.1213L25.931 16.1212Z" fill="#F0AC24"/>
<path d="M24.5951 20.3103C24.3185 20.0506 23.9993 20.1222 23.6849 20.2023C23.4826 20.2538 23.3189 20.1657 23.1805 20.0573C22.9795 19.8997 22.9914 19.8846 22.8306 19.9272C22.6772 19.9506 22.6418 20.1049 22.5448 20.1912C22.1972 20.5005 21.8513 20.8127 21.5053 21.1236C21.2554 21.3482 20.9645 21.5315 20.6689 21.701C20.5466 21.7711 20.3759 21.8039 20.3525 21.9888C20.4133 22.181 20.3523 22.3159 20.1946 22.4465C20.1102 22.5164 20.1691 22.641 20.2923 22.6464C20.8491 22.6709 21.4183 22.673 21.9144 22.4006C22.1409 22.2763 22.3142 22.0288 22.5168 21.8417C22.9711 21.4221 23.4071 20.9827 23.8579 20.5592C23.98 20.4445 24.1058 20.3042 24.31 20.3642C24.3982 20.3104 24.4983 20.3193 24.595 20.3104L24.5951 20.3103Z" fill="#E7A11A"/>
<path d="M22.8774 23.0874C22.886 23.0352 22.8679 22.9632 22.9388 22.9473C23.4146 22.841 23.6992 22.4169 24.1328 22.2367C24.514 22.0783 24.9053 21.9673 25.3091 21.8881C25.7434 21.803 26.1685 21.6825 26.5727 21.4977C26.6296 21.4717 26.6921 21.4468 26.6956 21.3682C26.4181 21.2632 26.1354 21.1764 25.843 21.1236C25.7627 21.0855 25.6845 21.1157 25.6163 21.1476C25.1549 21.3632 24.6511 21.4404 24.171 21.595C23.9207 21.6755 23.6882 21.7839 23.4662 21.9239C23.3416 22.0024 23.2248 22.1043 23.0677 22.1198C22.6769 22.468 22.6483 22.6136 22.8775 23.0874H22.8774Z" fill="#CA7D00"/>
<path d="M23.0676 22.1198C23.1488 22.2289 23.2326 22.1524 23.2931 22.1063C23.7391 21.7672 24.2613 21.6104 24.7928 21.4875C25.1578 21.4031 25.496 21.2538 25.8429 21.1235C25.4492 20.9624 25.0383 20.8566 24.6264 20.7567C24.4934 20.7245 24.3772 20.8092 24.2881 20.8968C23.8774 21.3006 23.4738 21.7114 23.0677 22.1197L23.0676 22.1198Z" fill="#A46103"/>
<path d="M26.3678 16.7896C26.5323 16.86 26.6843 16.7857 26.8187 16.7192C27.4552 16.4047 28.1131 16.127 28.6858 15.6964C28.8365 15.583 28.9757 15.4545 29.124 15.3377C29.2528 15.2362 29.201 15.1779 29.0827 15.1292C28.4983 15.212 27.914 15.2949 27.3296 15.3777C27.2595 15.3876 27.1896 15.4009 27.1191 15.4067C26.8624 15.4277 26.6934 15.5494 26.6281 15.8081C26.5454 16.1362 26.4549 16.4625 26.3677 16.7896H26.3678Z" fill="#C37803"/>
<path d="M25.9311 16.1212C25.8569 16.5672 25.6833 16.9852 25.5647 17.4189C25.4321 17.9037 25.5183 18.1708 25.9366 18.4593C26.5296 18.8684 27.1244 19.2749 27.7173 19.6843C27.8537 19.7784 27.9855 19.8794 28.1193 19.9772C28.2581 19.7933 28.0891 19.7168 27.9857 19.6402C27.4459 19.2397 26.9059 18.839 26.3537 18.456C25.6506 17.9683 25.6371 17.9374 25.8787 17.1162C26.0323 16.5945 26.1657 16.0668 26.3088 15.5421C26.3505 15.3894 26.3989 15.2394 26.5125 15.1212C26.2123 15.1878 26.1718 15.4586 26.0787 15.6831C26.0199 15.8251 26.0095 15.9848 25.931 16.1213L25.9311 16.1212Z" fill="#FBD95F"/>
<path d="M7.23977 20.3669C7.25792 20.2471 7.33679 20.2615 7.41794 20.2888C7.50307 20.3174 7.56371 20.3808 7.62817 20.4404C7.84248 20.6383 8.03457 20.8593 8.23617 21.0681C8.50509 21.3467 8.84377 21.5152 9.13743 21.7507C9.28515 21.8691 9.51126 21.7602 9.5216 21.5594C9.53291 21.3395 9.62496 21.2013 9.82258 21.1217C9.83878 21.0264 9.71946 21.0012 9.72435 20.9174C9.71425 20.7727 9.59567 20.7023 9.50622 20.6191C8.82138 19.9818 8.24073 19.262 7.77053 18.4536C7.60685 18.1723 7.46189 17.8811 7.33427 17.5813C7.28478 17.4652 7.24449 17.3431 7.15138 17.2507C6.99372 17.2174 6.85755 17.2966 6.77836 17.4007C6.59596 17.6408 6.37881 17.807 6.08254 17.867C5.87548 18.3236 5.43515 18.5276 5.06066 18.7991C4.53511 19.1803 4.01087 19.5635 3.4771 19.9334C3.53627 20.0461 3.59544 20.1589 3.65453 20.2716C3.78728 20.4964 3.91922 20.7218 4.05319 20.9459C4.13246 21.0784 4.21833 21.1484 4.40008 21.0892C5.15809 20.8419 5.92301 20.6157 6.68362 20.3764C6.8709 20.3174 7.05281 20.2932 7.23953 20.3669H7.23977Z" fill="#EEA820"/>
<path d="M10.3884 6.39636C10.38 6.35827 10.3779 6.3179 10.3217 6.3161C10.0792 6.30845 9.8768 6.14315 9.8046 5.91126C9.75772 5.76069 9.74047 5.55143 9.48587 5.68125C8.96488 6.13851 8.44699 6.59902 7.96026 7.09332C7.86056 7.19457 7.75816 7.29216 7.64348 7.37746C7.39816 7.56002 7.14145 7.6406 6.85137 7.48514C6.27487 7.25976 5.72426 6.97603 5.15353 6.73829C4.93402 6.6468 4.72346 6.53415 4.4967 6.45968C4.42223 6.43526 4.35028 6.39123 4.26994 6.44047C4.08022 6.59544 4.02047 6.84361 3.85639 7.01689C3.76694 7.18155 3.6814 7.3484 3.58666 7.51004C3.51878 7.62595 3.49989 7.72077 3.62287 7.8173C3.84516 7.99172 4.04766 8.19146 4.29078 8.33951C4.48758 8.36303 4.59974 8.52313 4.73957 8.63114C5.08386 8.89705 5.42945 9.16092 5.77993 9.41845C6.08287 9.64105 6.18201 9.90021 6.08775 10.2687C6.03477 10.476 5.97372 10.6812 5.91056 10.8858C5.88313 10.9747 5.83446 11.0642 5.89087 11.1599C5.95484 11.2013 6.03753 11.1694 6.1024 11.2437C6.30198 11.4723 6.55869 11.4655 6.76274 11.235C6.82272 11.1672 6.88108 11.108 6.97248 11.0906C7.07935 11.0282 7.10084 10.9122 7.13844 10.811C7.52351 9.77437 8.06525 8.82738 8.78395 7.9879C9.18562 7.51875 9.61187 7.07037 10.1104 6.69751C10.219 6.61628 10.3649 6.5602 10.3883 6.39652L10.3884 6.39636Z" fill="#FED95A"/>
<path d="M6.95798 11.0713C6.83736 10.9805 6.79487 11.0833 6.74221 11.1589C6.5585 11.4226 6.29773 11.422 6.13437 11.1517C6.04419 11.0024 5.98022 11.1365 5.90525 11.1628C5.76957 11.2254 5.76062 11.3632 5.72456 11.4804C5.64073 11.7528 5.56316 12.027 5.46321 12.2943C5.33632 12.6335 5.0928 12.8172 4.73369 12.849C4.07189 12.9077 3.40765 12.9383 2.747 13.0066C2.46741 13.0355 2.1775 12.9976 1.90841 13.1121C1.90321 13.5755 1.89799 14.0388 1.8927 14.5021C1.90784 14.6699 2.05492 14.6676 2.15959 14.6825C2.9311 14.7924 3.70286 14.903 4.48 14.9676C4.84528 14.921 5.14521 15.0177 5.33779 15.3549C5.36823 15.4081 5.39818 15.469 5.47729 15.4619C5.48934 15.4513 5.50676 15.4387 5.50602 15.4256C5.47957 14.967 5.90542 14.8952 6.15285 14.6724C6.20649 14.6241 6.28487 14.6249 6.35804 14.6304C6.43683 14.6364 6.51976 14.6495 6.56575 14.5579C6.61353 14.4189 6.60246 14.2745 6.59537 14.1335C6.5476 13.1888 6.71437 12.2728 6.9548 11.3658C6.98044 11.2691 7.03302 11.1701 6.9579 11.0713H6.95798Z" fill="#FCC43E"/>
<path d="M1.90847 13.1122C2.53364 13.127 3.15092 13.0292 3.77186 12.9833C4.03166 12.964 4.29204 12.952 4.552 12.9351C5.19785 12.893 5.44943 12.6974 5.62231 12.0662C5.70565 11.7621 5.81032 11.4637 5.90531 11.1628C5.9928 10.8444 6.08413 10.527 6.16682 10.2074C6.24349 9.91095 6.12246 9.58921 5.87837 9.40982C5.41525 9.06936 4.95237 8.72857 4.48998 8.38705C4.42934 8.34228 4.38051 8.2582 4.29082 8.33935C4.7777 8.7302 5.27436 9.10973 5.74716 9.51701C5.96594 9.70544 6.05312 9.95897 5.94535 10.2657C5.72494 10.8932 5.52325 11.5273 5.31766 12.16C5.20053 12.5203 4.93487 12.6561 4.57951 12.6889C3.76697 12.7638 2.95517 12.8473 2.14369 12.9331C2.03935 12.9442 1.9105 12.9529 1.90847 13.1121V13.1122Z" fill="#FCE77A"/>
<path d="M6.86069 7.53698C7.19993 7.71026 7.46438 7.64865 7.83447 7.30029C8.18006 6.97489 8.5215 6.645 8.86399 6.31634C8.99512 6.19051 9.12673 6.06647 9.27104 5.95423C9.36065 5.88456 9.4667 5.81285 9.48575 5.68116C9.50007 5.58805 9.5166 5.49526 9.52783 5.40174C9.53629 5.33166 9.50008 5.32076 9.4431 5.34794C9.38149 5.49754 9.27918 5.61255 9.15587 5.71697C8.61372 6.17635 8.09411 6.66055 7.58801 7.1594C7.39772 7.34701 7.1817 7.4551 6.90806 7.3466C6.77564 7.38095 6.81682 7.4586 6.86061 7.53682L6.86069 7.53698Z" fill="#FBF5B2"/>
<path d="M6.86075 7.53699C6.86352 7.47033 6.83943 7.39699 6.9082 7.34677C6.15321 7.02039 5.4092 6.66837 4.63671 6.38325C4.50355 6.33409 4.37536 6.3122 4.27012 6.44047C5.0549 6.73446 5.80729 7.10276 6.57157 7.44379C6.66452 7.4853 6.74908 7.55335 6.86075 7.53699Z" fill="#FCEC87"/>
<path d="M5.47565 15.4541C5.35088 15.2766 5.27184 15.0658 5.03068 14.9863C4.84266 14.9243 4.66621 14.9023 4.48014 14.9677C4.64211 14.9789 4.80327 14.9935 4.94847 15.0766C5.13454 15.1655 5.21951 15.3208 5.27746 15.515C5.46759 16.1521 5.63087 16.7971 5.85429 17.4247C5.97491 17.7635 5.93006 17.9067 5.71193 18.0671C5.01098 18.5962 4.30922 19.1243 3.60998 19.6557C3.52249 19.7222 3.38371 19.7756 3.47731 19.9335C3.57132 19.9455 3.64701 19.9023 3.71848 19.8508C4.38475 19.3707 5.05013 18.8894 5.71681 18.4098C5.90198 18.2766 6.04914 18.1176 6.09968 17.8868C6.18661 17.7738 6.17375 17.6434 6.14111 17.5224C5.96376 16.8658 5.73627 16.224 5.5568 15.5679C5.54427 15.5221 5.51789 15.4813 5.47573 15.4542L5.47565 15.4541Z" fill="#F8D054"/>
<path d="M5.71184 18.067C5.8725 18.0815 6.00135 17.8856 5.96675 17.6695C5.90424 17.2793 5.73259 16.9206 5.63541 16.5398C5.54417 16.182 5.43665 15.8282 5.32897 15.4748C5.27012 15.2819 5.18954 15.0997 4.9483 15.0765C5.14746 15.2463 5.19394 15.4853 5.26198 15.7224C5.42322 16.2836 5.59797 16.8412 5.78232 17.3952C5.86306 17.6378 5.86966 17.857 5.71176 18.067H5.71184Z" fill="#EBAC1E"/>
<path d="M6.9579 11.0713C6.8293 11.5578 6.71087 12.0465 6.61898 12.5418C6.50568 13.1519 6.51733 13.7673 6.52343 14.383C6.52416 14.4541 6.52107 14.5252 6.51977 14.5964C6.46344 14.6637 6.46881 14.7415 6.47793 14.8217C6.56274 15.5622 6.71283 16.2883 6.95871 16.9933C6.9955 17.0987 7.03294 17.2024 7.13159 17.2682C7.69466 18.6986 8.59396 19.8902 9.72425 20.9175C10.3221 21.376 10.9375 21.8056 11.6108 22.1508C13.1846 22.958 14.8581 23.251 16.6095 23.1207C17.8582 23.0278 19.0296 22.6542 20.1363 22.0727C20.2046 22.0368 20.2643 21.9747 20.3525 21.9888C20.5566 21.7851 20.8308 21.6899 21.0635 21.5304C21.558 21.1912 21.9793 20.7673 22.4165 20.362C22.5632 20.226 22.7372 20.1147 22.8306 19.9273C23.6556 18.9309 24.2995 17.8341 24.6709 16.5884C24.7541 16.3091 24.8183 16.0242 24.8913 15.742C25.0379 14.9542 25.117 14.1594 25.0646 13.3597C25.0375 12.9456 25.0419 12.5249 24.9279 12.1191C24.7766 11.5898 24.6494 11.0544 24.4493 10.5386C24.0821 9.59173 23.5564 8.74427 22.9066 7.96828C22.5043 7.48782 22.0517 7.05823 21.5909 6.63605C21.4092 6.56744 21.2847 6.41833 21.1331 6.30764C19.9802 5.46604 18.6819 4.97207 17.2862 4.73718C16.235 4.56023 15.1822 4.59799 14.1309 4.80188C12.7662 5.06657 11.5216 5.59668 10.3883 6.39635C9.0815 7.38169 8.06068 8.60118 7.37357 10.0911C7.22503 10.4132 7.09594 10.7443 6.9579 11.0713Z" fill="#FDF7A0"/>
<path d="M7.13171 17.2681C6.79955 16.4068 6.61105 15.5128 6.51997 14.5963C6.26082 14.4944 6.06588 14.6115 5.88576 14.7813C5.85142 14.8137 5.81886 14.8564 5.77718 14.8711C5.49231 14.9723 5.41678 15.1774 5.47563 15.4541C5.60463 16.0294 5.7815 16.591 5.96935 17.1489C6.05042 17.3897 6.11374 17.6305 6.0995 17.8867C6.41595 17.8996 6.61194 17.7239 6.77399 17.4758C6.85303 17.3547 7.00458 17.3247 7.13163 17.2682L7.13171 17.2681Z" fill="#F6B82F"/>
<path d="M7.18334 11.9182C7.03064 12.4125 6.97578 12.9214 6.94941 13.4358C6.83188 15.7228 7.50532 17.7556 8.96436 19.5099C10.3252 21.1462 12.0671 22.1766 14.1678 22.5563C16.5179 22.9811 18.7038 22.5458 20.7008 21.2218C21.0342 21.0008 21.3552 20.7605 21.6446 20.4816C21.6609 20.4328 21.7429 20.4011 21.7 20.3401C21.6512 20.2707 21.5835 20.3142 21.5299 20.3418C21.2647 20.4783 20.9827 20.5782 20.7385 20.7146C21.1492 20.2208 21.7149 19.861 22.1132 19.3325C22.1601 19.2702 22.2291 19.2216 22.2278 19.132C22.2078 19.0843 22.1727 19.0596 22.1205 19.0601C21.9188 19.1735 21.7862 19.3629 21.6216 19.517C21.422 19.7039 21.2449 19.9151 21.0151 20.0692C20.2967 20.677 19.4795 21.1064 18.5978 21.4244C17.7369 21.7349 16.8405 21.8823 15.9365 21.9076C15.0539 21.9322 14.1836 21.7717 13.3398 21.4868C11.4145 20.8366 9.95156 19.6104 8.89061 17.8987C8.263 16.886 7.89951 15.7744 7.77424 14.5857C7.74755 14.3323 7.72785 14.0803 7.73623 13.826C7.77782 12.3049 8.16793 10.8868 8.98421 9.5945C9.45808 8.82258 10.0724 8.17844 10.7785 7.61643C10.9638 7.46895 11.1761 7.355 11.3349 7.17374C11.3598 7.12474 11.3911 7.07973 11.4202 7.03326C11.4491 6.98703 11.4842 6.9342 11.4384 6.88333C11.3929 6.83262 11.3369 6.86819 11.2853 6.88203C10.4503 7.24162 9.80554 7.85483 9.19169 8.49612C8.54698 9.16955 8.02167 9.93301 7.62472 10.7815C7.4665 11.1198 7.34018 11.4682 7.23835 11.8266C7.22834 11.8618 7.23575 11.9082 7.18342 11.9182L7.18334 11.9182Z" fill="#AC6700"/>
<path d="M7.18337 11.9182C7.27632 11.9585 7.26639 11.8685 7.27819 11.8319C7.64877 10.6776 8.24895 9.66076 9.0483 8.74778C9.58541 8.13433 10.2046 7.62596 10.8551 7.14615C10.991 7.04596 11.1717 7.04059 11.2938 6.91915C12.509 6.32995 13.7675 5.9015 15.1267 5.78186C15.8078 5.72195 16.4731 5.78829 17.143 5.8661C17.2923 5.88343 17.4396 5.92348 17.5916 5.90671C17.707 5.84282 17.6547 5.78747 17.5845 5.7283C17.5239 5.67727 17.3579 5.67304 17.4717 5.53475C17.5603 5.42707 17.6774 5.35194 17.8262 5.44481C17.8669 5.47021 17.8964 5.50936 17.9343 5.53809C18.1164 5.6758 18.3149 5.64553 18.4889 5.45458C17.591 5.17329 16.6719 5.03639 15.7308 5.05779C13.1839 5.11574 11.0326 6.0708 9.29435 7.9311C8.27956 9.01711 7.60612 10.2989 7.21877 11.7319C7.20233 11.7927 7.19493 11.856 7.18337 11.9182Z" fill="#724518"/>
<path d="M18.4888 5.45457C18.2646 5.55671 18.057 5.66537 17.8578 5.37969C17.7659 5.24799 17.3527 5.4356 17.3228 5.60457C17.3086 5.68466 17.383 5.68279 17.4202 5.71608C17.4861 5.77501 17.6182 5.7405 17.6344 5.86861C17.6653 5.96237 17.7512 5.96465 17.8266 5.98402C19.4034 6.39025 20.7624 7.17178 21.8743 8.36368C22.484 9.01734 22.9884 9.74735 23.3502 10.5697C23.4672 10.7337 23.4919 10.9441 23.6179 11.1038C23.6793 11.1654 23.7262 11.2379 23.7784 11.3067C23.8318 11.3771 23.8745 11.4956 23.9929 11.4405C24.0946 11.3932 24.0661 11.2832 24.0718 11.1889C24.0918 10.8546 23.9696 10.5595 23.8364 10.2655C23.808 10.2028 23.7607 10.1436 23.7824 10.0666C23.1138 8.67167 22.1558 7.52152 20.8865 6.63256C20.148 6.11531 19.3564 5.70802 18.4889 5.45449L18.4888 5.45457Z" fill="#7D5121"/>
<path d="M22.2128 19.1249C21.7687 19.7392 21.1392 20.1701 20.6318 20.7218C20.6069 20.7489 20.5588 20.7583 20.5728 20.8202C20.7263 20.8647 20.8074 20.7224 20.9231 20.6736C21.1404 20.5819 21.352 20.4769 21.5668 20.3792C21.5988 20.3646 21.642 20.3225 21.6672 20.3692C21.6811 20.3951 21.6534 20.4432 21.6444 20.4815C22.4127 19.8511 23.0061 19.0763 23.5037 18.2234C23.9481 17.4617 24.2748 16.6537 24.4468 15.7862C24.416 15.7358 24.4366 15.6786 24.4258 15.6257C24.4104 15.5508 24.4135 15.456 24.3173 15.4371C24.2369 15.4212 24.188 15.4863 24.1564 15.5509C24.07 15.7271 24.039 15.4841 23.9714 15.5282C23.8551 15.5648 23.8558 15.6744 23.8388 15.7619C23.6646 16.6555 23.2751 17.4603 22.8272 18.2418C22.6839 18.4917 22.4786 18.6937 22.3058 18.9207C22.259 18.9821 22.1848 19.03 22.2127 19.1249H22.2128Z" fill="#9F5D01"/>
<path d="M23.9765 15.5482C23.9904 15.5668 24.0075 15.5838 24.0178 15.6043C24.0435 15.6558 23.9893 15.7512 24.0786 15.7613C24.16 15.7705 24.1536 15.6778 24.1814 15.6251C24.2124 15.5664 24.2202 15.4653 24.3108 15.4816C24.3923 15.4962 24.3396 15.5916 24.3657 15.6442C24.3899 15.693 24.4197 15.739 24.4469 15.7862C24.6753 14.902 24.6975 14.0003 24.6327 13.099C24.5608 12.0992 24.287 11.1449 23.873 10.2317C23.8471 10.1747 23.8127 10.1215 23.7823 10.0665C23.7099 10.2513 23.8271 10.3978 23.9033 10.5368C24.0448 10.7947 23.955 11.075 24.0179 11.3378C24.0228 11.3581 23.9932 11.4002 23.9698 11.4109C23.9235 11.4319 23.9055 11.3867 23.882 11.3557C23.8066 11.2565 23.7656 11.1288 23.6451 11.0666C23.5629 11.1633 23.6106 11.2641 23.6429 11.3591C23.9703 12.3256 24.0966 13.319 24.049 14.3365C24.0342 14.6535 23.9856 14.9665 23.939 15.2797C23.9247 15.3753 23.8999 15.4674 23.9765 15.548V15.5482Z" fill="#8A5911"/>
<path d="M7.67245 13.8316C7.65609 14.9754 7.93778 16.053 8.39252 17.0932C8.87721 18.2019 9.61096 19.128 10.5049 19.9277C11.2364 20.5823 12.0653 21.088 12.9905 21.429C13.7731 21.7174 14.5731 21.9014 15.4121 21.9441C16.8137 22.0156 18.1345 21.735 19.4076 21.1584C19.9394 20.9174 20.4154 20.5972 20.8879 20.2646C20.96 20.2138 21.0262 20.1584 21.0701 20.0803C20.9838 20.0154 20.9235 20.0847 20.859 20.1231C20.4441 20.3702 20.3924 20.3674 20.0003 20.0708C19.9814 20.0566 19.9636 20.0402 19.9431 20.0289C19.6805 19.8841 19.4036 19.7583 19.2364 19.4883C19.1351 19.4968 19.063 19.5613 18.9871 19.6183C17.9847 20.3702 16.8634 20.7445 15.6043 20.7831C13.3389 20.8525 11.3536 19.41 10.4728 17.3083C10.0782 16.3667 9.93506 15.3893 9.97177 14.3766C9.97714 14.2295 10.01 14.0742 9.92643 13.934C9.77049 13.9253 9.81127 14.0514 9.80386 14.1291C9.78823 14.2938 9.81151 14.4611 9.79214 14.6258C9.76178 14.8834 9.63497 14.9372 9.42604 14.7938C9.00255 14.5031 8.57744 14.2147 8.05002 14.1433C7.95243 14.13 7.90637 14.0573 7.85965 13.9814C7.8161 13.9106 7.78647 13.8166 7.67252 13.8315L7.67245 13.8316Z" fill="#CA7D00"/>
<path d="M7.67246 13.8316C7.8669 14.0431 8.10416 14.1847 8.40718 14.297C8.75554 14.4262 9.07655 14.6066 9.37152 14.8355C9.45926 14.9036 9.5557 15.0277 9.68121 14.959C9.80883 14.8891 9.85856 14.7562 9.86516 14.6001C9.8746 14.3762 9.80753 14.1456 9.9122 13.9285C10.054 13.8178 10.0323 13.6456 10.0629 13.4983C10.1377 13.1377 10.2169 12.7797 10.37 12.4427C10.6932 11.8631 10.9752 11.2593 11.4137 10.7487C11.984 10.0848 12.6406 9.53818 13.4481 9.18494C14.5196 8.70252 15.6349 8.54161 16.7972 8.72442C17.5184 8.85888 18.2061 9.0858 18.8372 9.46753C19.6424 9.94302 20.2754 10.5911 20.7593 11.3883C21.1467 11.9567 21.362 12.5927 21.4985 13.2602C21.5798 13.5773 21.5706 13.9005 21.5699 14.2234C21.5697 14.3406 21.5559 14.4604 21.6073 14.5726C21.6224 14.5985 21.6447 14.614 21.674 14.6195C21.7031 14.6208 21.7289 14.612 21.7515 14.5935C21.8518 14.3665 21.8112 14.1263 21.7974 13.8944C21.7499 13.0948 21.611 12.3134 21.2693 11.5799C20.6473 10.3325 19.7486 9.35358 18.4862 8.73272C18.0801 8.53299 17.6501 8.39633 17.2118 8.28466C16.0769 8.02184 14.9616 8.09379 13.8645 8.47756C13.2402 8.75282 12.621 9.03517 12.0867 9.47477C11.7239 9.77316 11.3897 10.0964 11.0965 10.4635C10.8372 10.7884 10.5959 10.8254 10.2601 10.5904C9.96153 10.3815 9.68992 10.1352 9.37396 9.94978C9.2609 9.88344 9.23315 9.76526 9.20336 9.64838C9.16934 9.51482 9.09763 9.45263 8.96162 9.53981C8.63475 9.96361 8.42607 10.4485 8.23455 10.9424C7.87406 11.872 7.688 12.8352 7.67262 13.8318L7.67246 13.8316Z" fill="#DD8E00"/>
<path d="M8.96153 9.53964C9.08427 9.52832 9.14759 9.56625 9.15687 9.70706C9.16306 9.80164 9.18324 9.91184 9.29028 9.97069C9.65206 10.1697 9.95126 10.4571 10.2923 10.6855C10.5952 10.8882 10.9034 10.8314 11.1278 10.5305C11.4179 10.1415 11.7697 9.81832 12.1444 9.51099C12.6166 9.12356 13.1514 8.85806 13.7047 8.6186C13.7468 8.60037 13.7827 8.56757 13.8215 8.54152C13.7529 8.3767 13.5975 8.30036 13.464 8.20863C13.2035 8.02965 12.947 7.84489 12.6641 7.69822C12.4473 7.58582 12.3617 7.34172 12.212 7.16209C12.087 7.012 11.9608 6.90562 11.7699 6.87714C11.5642 6.89341 11.4178 7.00858 11.2946 7.16242C10.3978 7.77334 9.63106 8.5158 9.01639 9.41242C8.98904 9.4523 8.9599 9.48844 8.96169 9.53955L8.96153 9.53964Z" fill="#EDA516"/>
<path d="M19.258 19.5117C19.3218 19.7379 19.4299 19.9113 19.6934 19.9472C19.8292 19.9656 19.9205 20.0863 20.0261 20.1657C20.367 20.4218 20.5446 20.4313 20.8899 20.1806C20.9464 20.1396 20.9879 20.0745 21.0701 20.0805C21.475 19.8044 21.7849 19.4289 22.1185 19.0782C22.4113 18.847 22.6313 18.5634 22.7456 18.2037C22.4411 17.6412 21.9089 17.3968 21.3432 17.1976C21.2303 17.1578 21.1261 17.1849 21.0206 17.2207C20.8136 17.3866 20.7561 17.651 20.6037 17.8529C20.261 18.3434 19.902 18.8202 19.4696 19.2377C19.387 19.3173 19.2798 19.3831 19.258 19.5117H19.258Z" fill="#E39504"/>
<path d="M11.2945 7.16251C11.4531 7.08649 11.5811 6.9526 11.7605 6.91573C12.0003 6.90205 12.1811 6.74399 12.3863 6.64998C13.1191 6.3144 13.8857 6.10498 14.6802 5.98761C15.0531 5.996 15.4214 5.92999 15.7952 5.93088C17.6839 5.93568 19.3623 6.53367 20.8313 7.71182C21.5219 8.2657 22.1178 8.91219 22.5894 9.6667C22.6316 9.73409 22.6739 9.80124 22.7381 9.85048C22.899 9.91584 22.9769 10.0372 22.979 10.2097C22.9912 10.2552 23.0143 10.2946 23.0439 10.3308C23.1637 10.4017 23.2188 10.5827 23.4037 10.543C22.9348 9.47632 22.2469 8.56188 21.383 7.79395C20.5152 7.02251 19.5312 6.42778 18.4023 6.10156C18.1454 6.02733 17.8904 5.94651 17.6345 5.8687C17.0025 5.77925 16.3718 5.66896 15.7305 5.68207C14.8823 5.6994 14.0512 5.83313 13.2359 6.06868C12.6331 6.24286 12.0546 6.47572 11.5008 6.7702C11.4255 6.81024 11.3336 6.8288 11.2939 6.91906C11.3318 6.91459 11.3831 6.89269 11.4046 6.90938C11.45 6.94438 11.3988 6.97636 11.3759 7.00168C11.3335 7.04856 11.2905 7.093 11.2946 7.16251H11.2945Z" fill="#A0741A"/>
<path d="M23.4036 10.543C23.293 10.4636 23.1824 10.3842 23.0717 10.3048C23.0007 10.4138 23.0783 10.501 23.1183 10.5901C23.4168 11.2538 23.6653 11.9331 23.7845 12.655C23.8038 12.7719 23.8162 12.8891 23.8293 13.0066C23.957 13.9023 23.8888 14.7894 23.7176 15.6719C23.568 16.4227 23.2894 17.1247 22.9174 17.7924C22.8426 17.9267 22.7267 18.0468 22.7345 18.2179C22.5291 18.5047 22.3237 18.7913 22.1183 19.0781C22.1498 19.0937 22.1813 19.1092 22.2128 19.1248C22.8784 18.4266 23.299 17.5835 23.6387 16.6951C23.7678 16.3575 23.8592 16.0068 23.9286 15.6511C23.9356 15.6151 23.9601 15.5824 23.9765 15.5481C24.0464 14.9688 24.1281 14.3931 24.1278 13.8049C24.1275 12.9643 23.9689 12.1583 23.7191 11.3634C23.6885 11.2661 23.6348 11.1743 23.6451 11.0667C23.5498 10.899 23.5219 10.7 23.4035 10.543L23.4036 10.543Z" fill="#B1760E"/>
<path d="M19.258 19.5117C19.7902 19.0309 20.2547 18.4928 20.6367 17.8847C20.6296 17.7889 20.6113 17.7009 20.4958 17.6795C20.3273 17.7543 20.2533 17.9231 20.1311 18.044C19.9124 18.2605 19.7175 18.5026 19.4595 18.6776C18.7181 19.2829 17.8742 19.6667 16.9363 19.8485C15.6995 20.0933 14.5107 19.9289 13.3612 19.4314C12.8147 19.1532 12.3157 18.804 11.8435 18.4142C11.6886 18.2864 11.5866 18.1132 11.4508 17.969C10.7473 17.1406 10.295 16.1978 10.1448 15.1162C10.0309 14.2964 10.1124 13.4925 10.3351 12.6992C10.3641 12.5959 10.4254 12.4906 10.3466 12.382C10.1033 12.7873 10.0606 13.2517 9.95905 13.6987C9.94172 13.7749 9.92772 13.8518 9.91225 13.9284C9.8884 14.8253 9.88018 15.7218 10.1502 16.5915C10.7443 18.5056 11.8959 19.9229 13.8315 20.5889C14.9556 20.9758 16.101 20.9382 17.2396 20.5908C17.9855 20.3632 18.6398 19.9734 19.2581 19.5116L19.258 19.5117Z" fill="#744401"/>
<path d="M23.8789 12.9735C23.8481 12.4192 23.7033 11.8907 23.5074 11.3755C23.3704 11.0154 23.2175 10.6615 23.0717 10.3048C23.054 10.2759 23.0363 10.247 23.0185 10.218C22.9597 10.0768 22.9265 9.92048 22.7863 9.82769C22.3496 9.14424 21.8434 8.51744 21.2396 7.97513C20.1087 6.95943 18.806 6.28567 17.3029 6.00682C16.6924 5.89361 16.0795 5.8525 15.4614 5.87179C15.2019 5.87993 14.9431 5.90793 14.684 5.92689C14.7415 6.07723 14.884 6.0292 14.9854 6.0358C15.194 6.04947 15.3355 6.10693 15.3511 6.3433C15.3575 6.43975 15.4169 6.52122 15.4849 6.58926C15.9026 7.00778 16.299 7.45308 16.8297 7.73762C17.0793 7.87151 17.2266 8.06506 17.255 8.34733C17.8377 8.52753 18.415 8.71726 18.9365 9.04755C19.8027 9.59613 20.4956 10.3064 20.9944 11.2042C21.0594 11.3212 21.1353 11.4322 21.2061 11.546C21.2783 11.6645 21.366 11.7823 21.514 11.78C22.0103 11.7726 22.3791 12.0704 22.7724 12.2994C23.1279 12.5064 23.4733 12.7327 23.8105 12.9701C23.8303 12.984 23.8556 12.9811 23.8789 12.9733V12.9735Z" fill="#FAC036"/>
<path d="M17.2548 8.34749C17.3221 8.13343 17.2298 7.89332 17.0036 7.77579C16.4175 7.4713 15.9752 6.99769 15.5173 6.54124C15.4417 6.46595 15.394 6.37699 15.394 6.26678C15.3938 6.06786 15.2882 5.99648 15.0959 5.9881C14.9589 5.98216 14.814 5.9929 14.6838 5.92697C13.6453 6.06713 12.6633 6.37422 11.7605 6.9158C12.1007 6.98149 12.2141 7.29192 12.4013 7.51941C12.4601 7.59079 12.4894 7.68691 12.5819 7.72956C13.0354 7.93874 13.4149 8.26081 13.8215 8.54169C14.2748 8.44142 14.7154 8.2932 15.1828 8.24363C15.818 8.17624 16.4439 8.19244 17.0678 8.32641C17.1288 8.33951 17.1925 8.34074 17.2549 8.34749H17.2548Z" fill="#F6B62A"/>
<path d="M23.8789 12.9735C23.4943 12.6392 23.0421 12.4055 22.6179 12.1303C22.4533 12.0234 22.2749 11.9371 22.1003 11.8463C21.9884 11.7881 21.8694 11.7242 21.7426 11.7386C21.5269 11.7632 21.3611 11.6763 21.2062 11.5461C21.2995 11.8961 21.4619 12.2228 21.5444 12.5772C21.699 13.2418 21.7502 13.9149 21.7347 14.5949C21.7312 14.6767 21.7927 14.66 21.8312 14.6479C22.0942 14.5652 22.2988 14.6861 22.4832 14.844C22.6721 15.0058 22.8729 15.1439 23.1036 15.2357C23.2312 15.2865 23.2917 15.3965 23.3704 15.4964C23.4724 15.626 23.5574 15.8029 23.7788 15.737C23.9047 15.1104 23.9843 14.4772 23.9668 13.8387C23.9589 13.5509 23.9651 13.2558 23.879 12.9734L23.8789 12.9735Z" fill="#F6B729"/>
<path d="M23.7787 15.737C23.6505 15.725 23.5405 15.6552 23.4882 15.5531C23.3607 15.3042 23.1493 15.177 22.9073 15.0709C22.7559 15.0045 22.6319 14.893 22.5079 14.7804C22.2888 14.5814 22.0285 14.5062 21.7346 14.5949C21.7193 14.595 21.704 14.595 21.6887 14.5949C21.5668 14.7691 21.6249 14.977 21.5864 15.1676C21.4582 15.802 21.3264 16.4327 21.0467 17.0223C21.0107 17.0981 20.9566 17.1764 21.02 17.2651C21.343 17.1637 21.5871 17.3853 21.8608 17.4771C22.1767 17.583 22.4034 17.807 22.5826 18.0846C22.6176 18.1388 22.6449 18.2191 22.7347 18.218C23.2276 17.4519 23.5734 16.624 23.7788 15.737H23.7787Z" fill="#EDA615"/>
<path d="M10.3466 12.3822C10.267 12.7773 10.1334 13.1591 10.0825 13.562C9.93788 14.7079 10.0817 15.8004 10.6184 16.8365C10.8439 17.2718 11.1089 17.6741 11.4343 18.0385C11.4801 18.0115 11.4994 17.969 11.5049 17.9182C11.5013 17.8668 11.4778 17.8235 11.4491 17.7822C10.7985 16.9524 10.4231 16.0084 10.2876 14.967C10.225 14.4853 10.2622 14.0052 10.3394 13.5278C10.544 12.248 11.1278 11.1808 12.1145 10.3335C12.4726 10.0261 12.8589 9.76763 13.2841 9.56488C13.3616 9.52793 13.4464 9.49325 13.4692 9.39412C13.4688 9.30532 13.4625 9.21856 13.3871 9.15564C12.8625 9.3544 12.4184 9.68282 12.0066 10.0502C11.3696 10.6187 10.8622 11.2883 10.5205 12.0772C10.4743 12.1839 10.4052 12.2808 10.3467 12.3822H10.3466Z" fill="#F9BB32"/>
<path d="M19.4944 18.7167C19.8864 18.4325 20.1915 18.0625 20.5014 17.6974C20.5795 17.6679 20.6279 17.6064 20.6749 17.5412C21.1909 16.8264 21.469 16.0183 21.6165 15.1579C21.6485 14.9711 21.6895 14.7859 21.6504 14.5952C21.6231 14.187 21.6802 13.7747 21.5919 13.3696C21.5803 13.3166 21.5599 13.2656 21.5436 13.2137C21.3586 13.2211 21.2829 13.3516 21.222 13.499C21.2755 14.0046 21.3222 14.509 21.2404 15.0177C21.2013 15.2616 21.1527 15.5019 21.086 15.7388C20.8758 16.5311 20.4741 17.2202 19.9479 17.8417C19.8694 17.9509 19.7362 18.0198 19.7069 18.1657C19.716 18.2962 19.6637 18.4025 19.5827 18.5015C19.5328 18.5624 19.4456 18.6132 19.4944 18.7166V18.7167Z" fill="#FCD756"/>
<path d="M13.3871 9.15564C13.3892 9.23988 13.3917 9.32396 13.439 9.39851C13.4615 9.41544 13.4866 9.42138 13.5142 9.41666C14.2748 9.11999 15.0563 8.92717 15.8796 8.9428C16.1044 8.91708 16.3242 9.03396 16.5503 8.96673C16.676 8.90365 16.7267 8.76748 16.8279 8.68006C16.3415 8.54251 15.8419 8.56156 15.35 8.60005C14.7114 8.65003 14.0964 8.82575 13.5081 9.08426C13.4656 9.10298 13.4274 9.13163 13.3873 9.15564H13.3871Z" fill="#FDD156"/>
<path d="M20.7933 11.3435C20.3165 10.5474 19.6923 9.89931 18.8809 9.43929C18.7202 9.52239 18.8406 9.64757 18.8333 9.7537C18.8619 9.83046 18.9178 9.88694 18.9826 9.9313C19.3817 10.2045 19.6929 10.5719 20.0351 10.9062C20.1608 11.0353 20.2609 11.1844 20.3648 11.3304C20.4184 11.4058 20.4619 11.4929 20.5632 11.519C20.6742 11.5055 20.7926 11.5015 20.7933 11.3435V11.3435Z" fill="#FCF3CB"/>
<path d="M18.8787 9.77771C18.8923 9.66498 18.8385 9.55176 18.8811 9.43928C18.3548 9.08058 17.765 8.8767 17.1511 8.73312C17.0451 8.7083 16.9357 8.69739 16.8278 8.68005C16.6473 8.65971 16.637 8.80914 16.5883 8.92024C16.7141 9.04811 16.8865 9.04274 17.044 9.07977C17.3778 9.13447 17.6846 9.2721 17.9969 9.3924C18.2143 9.48543 18.4242 9.5923 18.6257 9.71674C18.7006 9.76297 18.7724 9.85023 18.8786 9.77763L18.8787 9.77771Z" fill="#FDE583"/>
<path d="M20.7934 11.3435C20.7481 11.4528 20.6326 11.4451 20.5488 11.4904C20.5174 11.5169 20.5104 11.5517 20.5143 11.5904C20.7853 12.1109 21.0581 12.6308 21.168 13.2163C21.1948 13.2957 21.1887 13.3887 21.2628 13.4487C21.3564 13.3704 21.45 13.292 21.5436 13.2136C21.4208 12.5391 21.1938 11.9065 20.7934 11.3434V11.3435Z" fill="#FCDF7F"/>
<path d="M21.6503 14.5952C21.5798 15.6498 21.2221 16.6037 20.6403 17.4794C20.5927 17.5511 20.5476 17.6246 20.5013 17.6974C20.5464 17.7598 20.5915 17.8223 20.6366 17.8847C20.8044 17.7029 20.8685 17.4571 21.0199 17.2651C21.3002 16.6597 21.4908 16.0264 21.6145 15.3715C21.6631 15.1143 21.6982 14.857 21.6886 14.5948C21.6758 14.5955 21.6631 14.5956 21.6503 14.5951V14.5952Z" fill="#965707"/>
<path d="M22.7862 9.82768C22.8588 9.96068 22.9028 10.1106 23.0185 10.218C23.0428 10.0274 22.9977 9.87815 22.7862 9.82768Z" fill="#B1760E"/>
<path d="M19.4944 18.7167C19.5283 18.5957 19.6659 18.5501 19.7053 18.4433C19.7354 18.3622 19.8414 18.2698 19.7272 18.1714C19.6433 18.1497 19.5942 18.2082 19.5419 18.2544C18.8279 18.8839 18.0179 19.3336 17.0917 19.5673C17.0165 19.5863 16.9327 19.594 16.8864 19.6726C16.8677 19.7635 16.8329 19.8603 16.9689 19.893C17.8069 19.7615 18.5504 19.4075 19.2391 18.9263C19.329 18.8634 19.4094 18.7869 19.4943 18.7167H19.4944Z" fill="#F1BA2C"/>
<path d="M16.969 19.893C16.8918 19.8247 16.9276 19.7351 16.9238 19.6529C16.7013 19.5755 16.4853 19.669 16.2682 19.6866C15.4528 19.753 14.6564 19.6794 13.8761 19.429C13.7116 19.3763 13.557 19.2845 13.3764 19.287C13.2929 19.3171 13.2945 19.3858 13.2999 19.4562C13.8434 19.7514 14.4349 19.8904 15.0394 19.979C15.6644 20.0706 16.2882 20.0315 16.9089 19.9283C16.9303 19.9247 16.9491 19.9051 16.969 19.893Z" fill="#E69C09"/>
<path d="M13.2999 19.4562C13.3521 19.4205 13.342 19.365 13.3453 19.3137C13.2837 19.1407 13.1003 19.1329 12.978 19.0421C12.5265 18.7956 12.1265 18.4831 11.7679 18.1145C11.6907 18.0352 11.6311 17.9141 11.4868 17.9321C11.4432 17.9546 11.4372 17.9958 11.4342 18.0385C11.8062 18.5376 12.3147 18.8738 12.8302 19.1998C12.9806 19.295 13.143 19.3713 13.2999 19.4562Z" fill="#F4B31B"/>
<path d="M13.4869 9.39565C13.4709 9.39663 13.455 9.3976 13.4391 9.3985C13.0917 9.62925 12.7032 9.78764 12.3691 10.0462C11.3743 10.8161 10.6783 11.7782 10.3897 13.0146C10.3524 13.1746 10.2676 13.3257 10.2933 13.4984C10.3936 13.8063 10.4767 13.8799 10.7909 13.8974C11.016 13.9098 11.2334 14.0044 11.4631 13.9589C11.5553 13.8979 11.5501 13.7941 11.5673 13.7041C11.8086 12.4457 12.4607 11.4681 13.5521 10.7889C13.6198 10.7468 13.6841 10.7009 13.7312 10.6345C13.7676 10.5796 13.7913 10.5166 13.7787 10.4542C13.7187 10.1594 13.6973 9.85853 13.6344 9.56446C13.6171 9.48347 13.5753 9.41746 13.4869 9.39557V9.39565Z" fill="#F2AA0F"/>
<path d="M11.4805 13.9267C11.1984 13.9073 10.9252 13.8231 10.639 13.8243C10.4353 13.8251 10.4311 13.5843 10.2932 13.4984C10.1697 13.9719 10.1638 14.4569 10.2142 14.9353C10.2764 15.5252 10.4345 16.0987 10.6813 16.6404C10.878 17.0721 11.1054 17.4885 11.4348 17.8388C11.7343 17.7074 11.9766 17.4973 12.2006 17.2667C12.2823 17.1825 12.3666 17.1016 12.4518 17.0212C12.4659 16.9438 12.4292 16.8822 12.3858 16.8254C12.046 16.381 11.8059 15.8877 11.6602 15.3478C11.5703 14.9912 11.5449 14.6292 11.5537 14.263C11.5565 14.1477 11.5791 14.0223 11.4804 13.9267H11.4805Z" fill="#F4B31B"/>
<path d="M12.4414 17.0247C12.3956 17.0338 12.3254 17.0271 12.3076 17.0546C12.0862 17.3949 11.7109 17.5617 11.4348 17.8389C11.4521 17.87 11.4695 17.9011 11.4868 17.9321C11.8824 18.2997 12.2583 18.6907 12.7287 18.9696C12.8031 19.0137 12.8695 19.0696 12.9597 19.0777C13.0314 19.103 13.0786 19.0556 13.1294 19.0202C13.4504 18.7966 13.8085 18.6541 14.1791 18.5391C14.2842 18.5064 14.398 18.4905 14.4517 18.3739C14.4392 18.234 14.3131 18.237 14.2247 18.2037C13.6889 18.0012 13.2191 17.6982 12.814 17.2942C12.6861 17.2096 12.6277 17.0284 12.4414 17.0247Z" fill="#E69C09"/>
<path d="M14.4383 18.3625C14.237 18.5137 13.9786 18.5117 13.7573 18.6211C13.481 18.7579 13.1927 18.8669 12.9598 19.0777C13.0884 19.1564 13.2169 19.2351 13.3454 19.3138C13.8252 19.4897 14.3044 19.6645 14.8183 19.7206C15.5239 19.7976 16.2271 19.8349 16.9239 19.6529C17.5612 19.5624 18.129 19.2912 18.6745 18.9688C19.055 18.7439 19.4089 18.48 19.7273 18.1714C19.8092 18.0765 19.8912 17.9817 19.9731 17.8869C19.9102 17.738 19.7881 17.8068 19.6902 17.8178C19.2384 17.8685 18.7917 17.8309 18.3461 17.7559C18.2427 17.7458 18.1655 17.8057 18.084 17.8543C17.0358 18.4782 15.9166 18.6329 14.7327 18.3609C14.6351 18.3385 14.536 18.2812 14.4383 18.3624V18.3625Z" fill="#D48400"/>
<path d="M21.2628 13.4488C21.2445 13.3691 21.2869 13.2773 21.2154 13.2081C21.1313 13.1419 21.0376 13.1543 20.9432 13.1755C20.6849 13.2335 20.4564 13.3628 20.2277 13.4869C20.0697 13.5726 20.0278 13.7326 20.0546 13.8983C20.136 14.4024 20.0384 14.8897 19.9326 15.377C19.9162 15.5909 19.7473 15.7665 19.7763 15.9922C19.8609 16.0826 19.97 16.0958 20.0802 16.0709C20.431 15.9918 20.7783 15.8991 21.1207 15.7884C21.3605 15.1743 21.3828 14.5356 21.3308 13.8896C21.3189 13.7418 21.2861 13.5957 21.2629 13.4489L21.2628 13.4488Z" fill="#F2AD18"/>
<path d="M21.1205 15.7883C20.8269 15.7494 20.5706 15.8924 20.2985 15.9576C20.1298 15.9981 19.9639 16.061 19.7903 15.9814C19.687 16.0316 19.6635 16.1396 19.617 16.2286C19.4096 16.6247 19.1298 16.9698 18.8557 17.3188C18.8022 17.387 18.738 17.4483 18.6544 17.4824C18.5625 17.5958 18.3779 17.6194 18.3501 17.7952C18.3972 17.8223 18.4457 17.8748 18.4912 17.8724C18.8971 17.8505 19.3019 17.9733 19.7069 17.8817C19.7983 17.861 19.8853 17.8308 19.9732 17.887C20.5228 17.2788 20.9245 16.5898 21.1206 15.7884L21.1205 15.7883Z" fill="#E39401"/>
<path d="M11.4805 13.9267C11.4902 14.3955 11.4486 14.868 11.5813 15.3278C11.5894 15.356 11.6109 15.3803 11.6262 15.4065C11.6954 15.4284 11.7379 15.488 11.7955 15.5264C11.8967 15.594 11.9824 15.5966 12.0455 15.4767C12.0615 15.4284 12.0624 15.3794 12.0543 15.3296C11.9535 14.9183 11.8596 14.5064 11.9112 14.078C11.9411 13.7138 12.0094 13.3577 12.1386 13.015C12.3022 12.6345 12.4528 12.2462 12.763 11.9515C13.3942 11.153 14.2323 10.7167 15.2219 10.5446C15.2691 10.5364 15.313 10.5175 15.356 10.4967C15.6636 10.435 15.9734 10.4682 16.2823 10.4732C16.3101 10.5164 16.3502 10.5285 16.3983 10.5211C16.437 10.5089 16.4858 10.4911 16.4912 10.4543C16.5273 10.209 16.6919 10.237 16.8623 10.2726C16.9321 10.2872 17.0022 10.3081 17.0736 10.2915C17.1771 10.2677 17.2763 10.199 17.2249 10.0956C17.0536 9.75053 17.0726 9.38345 17.0625 9.01792C16.9045 8.98537 16.7464 8.95273 16.5884 8.92017C16.3457 8.95623 16.112 8.84773 15.8699 8.87565C16.0234 9.17371 15.8925 9.47095 15.8632 9.76738C15.8478 9.92349 15.7475 9.99145 15.5872 10.0024C15.0447 10.0393 14.5295 10.1853 14.0326 10.4054C13.8988 10.4647 13.7956 10.5603 13.6775 10.6378C12.973 11.0425 12.3964 11.5823 12.0045 12.2961C11.7266 12.8022 11.5258 13.3415 11.4808 13.9265L11.4805 13.9267Z" fill="#FACC43"/>
<path d="M13.6773 10.6379C13.9697 10.5518 14.2184 10.3661 14.5157 10.2845C14.8952 10.1803 15.2709 10.0629 15.6688 10.068C15.8206 10.0699 15.8744 9.98575 15.9144 9.86317C15.9929 9.6229 15.9426 9.36253 16.0458 9.12315C16.1071 8.9808 15.9018 8.97917 15.8697 8.87564C15.1223 8.857 14.4076 9.02011 13.7087 9.2677C13.6288 9.29603 13.5444 9.32476 13.4868 9.39557C13.6345 9.79675 13.716 10.2081 13.6773 10.6379V10.6379Z" fill="#F9BB32"/>
<path d="M17.0624 9.01808C16.9758 9.34308 16.9458 9.66141 17.1285 9.97102C17.1655 10.0338 17.2352 10.124 17.1521 10.2054C17.0779 10.278 16.993 10.2315 16.9073 10.2181C16.8233 10.2049 16.7406 10.1366 16.6559 10.18C16.5683 10.225 16.3116 10.1461 16.4726 10.403C16.4771 10.4102 16.4217 10.455 16.3943 10.4822C16.701 10.6509 17.0471 10.6991 17.3751 10.8024C17.5889 10.747 17.8027 10.7757 17.9989 10.8544C18.4885 11.0509 18.8555 11.3792 19.022 11.8974C19.0725 12.0547 19.1839 12.1885 19.1982 12.3595C19.2173 12.4664 19.2714 12.5602 19.3103 12.6598C19.4399 12.9173 19.5082 13.1999 19.6351 13.4585C19.7637 13.4368 19.7425 13.3341 19.7305 13.2552C19.674 12.8835 19.7851 12.4899 19.5816 12.1365C19.5345 12.0547 19.5886 12.0304 19.6696 12.0252C20.0211 12.0024 20.282 11.7931 20.5455 11.5907C20.5466 11.5573 20.5477 11.5239 20.5488 11.4904C20.3913 11.2838 20.2741 11.046 20.0737 10.8723C19.9036 10.8173 19.8279 10.9667 19.7456 11.0513C19.5119 11.2912 19.258 11.2881 18.9876 11.1541C18.5465 10.9354 18.3207 10.5658 18.2729 10.0823C18.2651 10.0038 18.2668 9.92389 18.2714 9.84519C18.2842 9.62893 18.2153 9.45703 18.0168 9.35057C17.7151 9.19267 17.3959 9.08499 17.0625 9.01808H17.0624Z" fill="#FDD156"/>
<path d="M18.0167 9.35057C18.2034 9.52426 18.2243 9.74654 18.2079 9.98291C18.1697 10.5359 18.6002 11.1252 19.0773 11.2631C19.3221 11.3339 19.5519 11.3601 19.7466 11.1321C19.8353 11.0282 19.9634 10.9579 20.0736 10.8724C19.7158 10.4633 19.3224 10.093 18.8785 9.7778C18.5797 9.65888 18.3339 9.43261 18.0167 9.35065L18.0167 9.35057Z" fill="#FED968"/>
<path d="M20.5454 11.5907C20.3665 11.6175 20.2362 11.7418 20.0856 11.824C19.919 11.9149 19.7669 12.0098 19.5563 11.9439C19.423 11.9022 19.4418 12.0145 19.4839 12.088C19.5597 12.22 19.6171 12.3644 19.6284 12.5088C19.6531 12.8215 19.6458 13.1369 19.6517 13.4511C19.6277 13.468 19.6153 13.4912 19.6141 13.5205C19.6818 14.0039 19.6723 14.4892 19.6451 14.9748C19.7009 15.159 19.7362 15.3595 19.9728 15.4072C20.1264 14.9482 20.2004 14.4784 20.1272 13.9965C20.0792 13.6813 20.1165 13.6053 20.4127 13.4657C20.6699 13.3443 20.9175 13.2005 21.2152 13.2082C21.1219 12.6151 20.8787 12.0843 20.5454 11.5908V11.5907Z" fill="#FCD149"/>
<path d="M12.0159 15.4951C11.9273 15.561 11.8616 15.5277 11.7924 15.456C11.7519 15.414 11.7121 15.3165 11.6262 15.4065C11.7511 16.0198 12.096 16.5224 12.4415 17.0247C12.5498 17.1238 12.6581 17.223 12.7663 17.3222C12.8664 17.2302 12.8811 17.0963 12.9344 16.9812C12.9366 16.8865 12.8851 16.8126 12.8264 16.7501C12.5229 16.4267 12.3297 16.0381 12.1539 15.6381C12.1262 15.575 12.1074 15.4989 12.016 15.4952L12.0159 15.4951Z" fill="#FDE56A"/>
<path d="M12.9238 16.9736C12.784 17.0503 12.7938 17.1946 12.7663 17.3221C13.1735 17.759 13.6732 18.0528 14.2248 18.2672C14.2974 18.2954 14.3673 18.3306 14.4384 18.3625C14.8926 18.4712 15.3466 18.564 15.8197 18.5581C16.673 18.5475 17.46 18.3273 18.1828 17.8749C18.2353 17.842 18.279 17.7894 18.3501 17.7952C18.4448 17.6796 18.6116 17.6476 18.6844 17.5066C18.7031 17.3999 18.6272 17.387 18.5551 17.3892C18.4568 17.3923 18.3708 17.353 18.2799 17.3293C18.1674 17.3246 18.0882 17.3968 18.003 17.4523C16.5543 18.3953 14.667 18.3007 13.3167 17.2212C13.1965 17.1251 13.0974 16.9879 12.9238 16.9736Z" fill="#FDEF8D"/>
<path d="M18.3009 17.3431C18.338 17.4638 18.435 17.469 18.5311 17.4492C18.6014 17.4348 18.655 17.4279 18.6842 17.5066C18.8182 17.5203 18.8669 17.3999 18.9237 17.3262C19.25 16.9029 19.5971 16.4912 19.7901 15.9814C19.8464 15.7885 19.974 15.6183 19.9728 15.4071C19.8346 15.3131 19.774 15.1627 19.6954 15.0254C19.6732 15.0363 19.657 15.0531 19.6465 15.0754C19.5652 15.4655 19.3963 15.8212 19.2125 16.1707C19.0573 16.4901 18.8217 16.7467 18.5688 16.9893C18.4828 17.1097 18.3216 17.1734 18.3007 17.343L18.3009 17.3431Z" fill="#FDE365"/>
<path d="M18.3009 17.3431C18.3982 17.2433 18.4956 17.1435 18.5929 17.0437C18.6012 17.0293 18.6117 17.0087 18.6038 17C18.445 16.8211 18.309 16.6197 18.1012 16.4889C17.9114 16.5728 17.7485 16.7 17.5776 16.8145C16.386 17.6122 14.6754 17.4762 13.6418 16.488C13.373 16.231 13.147 15.9323 12.9819 15.593C12.942 15.5108 12.9246 15.4061 12.8112 15.3809C12.6174 15.3874 12.4246 15.3891 12.2348 15.3356C12.1619 15.315 12.0828 15.2941 12.0147 15.356C12.015 15.4024 12.0153 15.4489 12.0157 15.4953C12.238 16.0373 12.5297 16.5368 12.9236 16.9737C13.5317 17.5292 14.2158 17.9339 15.0403 18.0834C16.1714 18.2886 17.212 18.0885 18.1597 17.4304C18.2051 17.3989 18.2537 17.3722 18.3008 17.3432L18.3009 17.3431Z" fill="#E19501"/>
<path d="M19.354 12.6369C19.3205 12.5451 19.2869 12.4534 19.2534 12.3617C19.0193 11.85 18.6226 11.482 18.1806 11.1564C18.0096 11.0305 17.8429 10.8944 17.6417 10.8163C17.5639 10.7861 17.4905 10.722 17.3969 10.7674C17.0713 10.6419 16.742 10.5296 16.3943 10.4822C16.3554 10.4888 16.3173 10.4927 16.2909 10.4538C15.9609 10.4142 15.631 10.3886 15.3024 10.466C14.527 10.5855 13.8323 10.885 13.2165 11.3756C13.0163 11.5351 12.8964 11.7626 12.7004 11.9215C12.9804 11.909 13.2662 11.8806 13.5031 11.7311C14.5439 11.0745 15.6642 10.9251 16.84 11.2173C17.5513 11.3941 18.1657 11.7818 18.7121 12.2665C18.8801 12.4155 19.0752 12.5214 19.2467 12.6623C19.2799 12.6897 19.3418 12.7415 19.354 12.6368V12.6369Z" fill="#532E02"/>
<path d="M19.3539 12.6368C19.1853 12.5258 19.0004 12.433 18.8508 12.3005C18.1904 11.7152 17.4641 11.2549 16.5833 11.0926C15.4918 10.8914 14.46 11.0548 13.5132 11.6535C13.3883 11.7326 13.2693 11.8059 13.1186 11.781C12.9515 11.7533 12.8564 11.925 12.7004 11.9216C12.4095 12.2181 12.2503 12.5907 12.0966 12.9664C12.0847 13.0537 12.1389 13.0327 12.1786 13.0103C12.2581 12.9653 12.2958 12.8819 12.3359 12.8064C12.4637 12.5661 12.6984 12.5171 12.931 12.4664C13.081 12.4337 13.0289 12.6041 13.1037 12.6499C13.2105 12.664 13.2575 12.5823 13.3117 12.5166C13.9282 11.7683 14.7339 11.3621 15.689 11.3337C16.7315 11.3027 17.632 11.6694 18.303 12.507C18.372 12.5931 18.4241 12.6947 18.5231 12.7542C18.9826 12.7991 19.281 13.0773 19.52 13.4423C19.55 13.4881 19.5573 13.5696 19.6468 13.532C19.6504 13.5305 19.652 13.5197 19.6511 13.5137C19.65 13.5062 19.6454 13.4992 19.6424 13.492C19.6454 13.4784 19.6485 13.4648 19.6517 13.4512C19.6126 13.1578 19.4875 12.8958 19.3539 12.6369V12.6368Z" fill="#6E4203"/>
<path d="M13.1099 12.6536C13.1082 12.5984 13.1052 12.5431 13.1051 12.4879C13.1047 12.3592 13.0491 12.3629 12.9373 12.3867C12.5957 12.4596 12.312 12.594 12.1855 12.9494C12.1719 12.9876 12.1363 13.0132 12.0965 12.9665C11.9306 13.315 11.8658 13.685 11.8616 14.0681C11.8192 14.3885 11.82 14.3913 12.1303 14.3799C12.3102 14.3733 12.4938 14.374 12.6402 14.2412C12.729 14.0335 12.716 13.8034 12.7819 13.5904C12.8295 13.3412 12.9316 13.1132 13.0494 12.8901C13.0877 12.8178 13.1603 12.7502 13.1099 12.6536Z" fill="#884F01"/>
<path d="M12.616 14.2151C12.4114 14.3213 12.1883 14.3139 11.9686 14.312C11.7696 14.3103 11.9153 14.1421 11.8617 14.0679C11.7835 14.5125 11.8681 14.9379 12.0147 15.3558C12.2275 15.3838 12.4291 15.4813 12.6509 15.4542C12.7111 15.4468 12.7766 15.4626 12.8197 15.4022C12.8829 15.3179 12.8348 15.2346 12.8142 15.1531C12.7618 14.9457 12.7091 14.7386 12.6967 14.5237C12.6857 14.4166 12.7236 14.2968 12.6161 14.2151H12.616Z" fill="#B97302"/>
<path d="M15.3023 10.466C15.6314 10.4239 15.9613 10.4509 16.2908 10.4538C16.3087 10.4319 16.304 10.4033 16.28 10.4031C15.9837 10.4007 15.6874 10.4014 15.3911 10.4026C15.3486 10.4027 15.3189 10.4268 15.3023 10.4661V10.466Z" fill="#FDD156"/>
<path d="M17.3969 10.7674C18.1331 11.09 18.707 11.6041 19.161 12.2602C19.1868 12.2975 19.2224 12.328 19.2534 12.3617C19.0842 11.6632 18.7503 11.0932 18.0525 10.7988C17.8575 10.7165 17.6473 10.7506 17.4492 10.699C17.4385 10.6962 17.4146 10.7435 17.3969 10.7674Z" fill="#FED968"/>
<path d="M19.6424 13.4919C19.5152 13.2019 19.2528 13.0447 19.0205 12.8581C18.8821 12.747 18.7412 12.6463 18.5507 12.7356C18.5105 12.9429 18.7064 13.069 18.7283 13.255C18.8328 13.5151 18.8702 13.7916 18.9251 14.0637C18.9553 14.1467 18.952 14.2343 18.9601 14.3204C18.9663 14.3845 18.9781 14.4576 19.0447 14.4787C19.3019 14.5605 19.4176 14.7793 19.5518 14.9822C19.5815 15.027 19.6092 15.0796 19.6784 15.0693C19.6832 15.0544 19.6889 15.0397 19.6955 15.0255C19.7582 14.5115 19.7965 13.9984 19.6425 13.4919H19.6424Z" fill="#754402"/>
<path d="M19.6784 15.0693C19.5754 14.9044 19.4828 14.7325 19.3484 14.5891C19.3219 14.5608 19.2997 14.5029 19.2747 14.5024C18.9685 14.4969 19.04 14.2427 18.9851 14.0724C18.875 14.15 18.9146 14.2687 18.9031 14.373C18.887 14.5195 18.946 14.6682 18.8894 14.8134C18.8396 15.145 18.679 15.4429 18.5983 15.7652C18.7746 15.9734 18.9879 16.1282 19.2496 16.2125C19.4558 15.8551 19.6463 15.4919 19.6785 15.0693H19.6784Z" fill="#8D5402"/>
<path d="M19.2495 16.2125C19.0446 16.069 18.8396 15.9256 18.6347 15.7821C18.419 15.8944 18.3551 16.1411 18.1827 16.2918C18.1491 16.3592 18.0794 16.415 18.1127 16.5044C18.2266 16.7253 18.4264 16.8696 18.5928 17.0437C18.8627 16.8069 19.0906 16.5369 19.2495 16.2126V16.2125Z" fill="#B77101"/>
<path d="M18.1128 16.5044C18.1507 16.4406 18.1886 16.3768 18.2266 16.313C18.2702 15.0022 17.4739 13.7872 16.1042 13.3559C14.7809 13.0165 13.6752 13.4013 12.7439 14.366C12.693 14.4187 12.6668 14.4849 12.6369 14.5493C12.6297 14.8482 12.7577 15.1182 12.8196 15.4022C13.1493 16.123 13.6285 16.7112 14.3589 17.0507C15.5593 17.6088 16.7116 17.5124 17.7944 16.7411C17.9013 16.6649 18.0379 16.6245 18.1127 16.5044H18.1128Z" fill="#090E17"/>
<path d="M18.7728 13.2143C18.7376 13.0367 18.6203 12.8972 18.5506 12.7356C18.1551 12.1288 17.614 11.7026 16.9329 11.4633C15.8041 11.0666 14.526 11.2682 13.592 12.1323C13.4188 12.2926 13.27 12.4791 13.11 12.6536C12.9697 12.9464 12.781 13.2187 12.7303 13.5494C12.8227 13.7174 12.9525 13.6716 13.0755 13.6005C13.2264 13.5133 13.3605 13.3993 13.5067 13.3042C14.745 12.498 16.0582 12.259 17.4705 12.7875C17.8117 12.9152 18.1616 13.0219 18.4744 13.2184C18.5659 13.276 18.6753 13.3318 18.7728 13.2143Z" fill="#090E17"/>
<path d="M18.7728 13.2142C18.6755 13.2476 18.5907 13.2213 18.5044 13.1708C17.9757 12.8613 17.407 12.6392 16.8103 12.5235C15.7573 12.3191 14.7578 12.4988 13.8229 13.0354C13.5687 13.1814 13.3295 13.3456 13.0965 13.5217C12.9843 13.6066 12.8609 13.6551 12.7302 13.5493C12.658 13.7654 12.6289 13.9889 12.616 14.215C12.623 14.3265 12.6299 14.4379 12.6369 14.5493C12.9919 14.201 13.3515 13.8638 13.8051 13.6357C14.5464 13.263 15.3127 13.2208 16.1057 13.4058C16.9858 13.495 17.7143 13.8975 18.3663 14.4751C18.5323 14.6221 18.6714 14.8305 18.93 14.844C19.0609 14.7736 18.9712 14.6632 18.9762 14.5719C18.9852 14.4057 18.9827 14.2388 18.985 14.0723C18.9421 13.7794 18.8986 13.4865 18.7727 13.2141L18.7728 13.2142Z" fill="#090E17"/>
<path d="M18.9301 14.844C18.592 14.5768 18.2591 14.3026 17.9147 14.0439C17.4335 13.6823 16.9021 13.4386 16.2916 13.3909C16.2256 13.3857 16.1676 13.4029 16.1057 13.4058C16.5847 13.5966 17.0293 13.8358 17.3856 14.2238C17.8697 14.7509 18.1226 15.3679 18.1617 16.0783C18.1662 16.1597 18.1274 16.2564 18.2266 16.3131C18.4061 16.1695 18.4949 15.9562 18.6348 15.7822C18.7541 15.4761 18.9092 15.1813 18.9301 14.8441V14.844Z" fill="#090E17"/>
</g>
<defs>
<clipPath id="clip0_98_2153">
<rect width="29.0407" height="29" fill="white" transform="matrix(-1 0 0 1 29.9851 0)"/>
</clipPath>
</defs>
</svg>
